<svg width="16" height="16" viewBox="0 0 16 16" fill="none" xmlns="http://www.w3.org/2000/svg">
<path d="M2.00684 5.797H13.7075" stroke="#333333" stroke-miterlimit="10" stroke-linecap="round" stroke-linejoin="round"/>
<path d="M7.59293 11.9397H4.6034C2.52654 11.9397 2 11.4249 2 9.37144V4.56245C2 2.70204 2.43294 2.10531 4.06518 2.0117C4.22899 2.00585 4.41034 2 4.6034 2H11.1031C13.18 2 13.7065 2.51483 13.7065 4.5683V7.14831" stroke="#333333" stroke-linecap="round" stroke-linejoin="round"/>
<path d="M4.34692 8.72217H5.22447" stroke="#333333" stroke-miterlimit="10" stroke-linecap="round" stroke-linejoin="round"/>
<path d="M14 10.5C14 10.9688 13.8688 11.4125 13.6375 11.7875C13.2063 12.5125 12.4125 13 11.5 13C10.5875 13 9.79375 12.5125 9.3625 11.7875C9.13125 11.4125 9 10.9688 9 10.5C9 9.11875 10.1187 8 11.5 8C12.8813 8 14 9.11875 14 10.5Z" stroke="#333333" stroke-miterlimit="10" stroke-linecap="round" stroke-linejoin="round"/>
<path d="M11.8061 11.3548L11.3673 10.9161L11.3673 9.59975" stroke="#333333" stroke-linecap="round" stroke-linejoin="round"/>
</svg>
