<svg width="79" height="48" viewBox="0 0 79 48" fill="none" xmlns="http://www.w3.org/2000/svg">
<path d="M72.7695 0H50.0898C46.9583 0 44.4197 2.53859 44.4197 5.6701V28.3498C44.4197 31.4813 46.9583 34.0199 50.0898 34.0199H72.7695C75.901 34.0199 78.4396 31.4813 78.4396 28.3498V5.6701C78.4396 2.53859 75.901 0 72.7695 0Z" fill="#F2F4F6"/>
<path d="M55.7596 10.915H58.8759L61.9557 18.108L65.0284 10.915H68.1291L62.941 23.105H60.9576L55.7596 10.915Z" fill="black"/>
<path d="M3.7786 5.94073C4.29741 5.94073 4.75243 6.05129 5.14365 6.27242C5.54339 6.48505 5.84957 6.78698 6.06219 7.17821C6.28332 7.56943 6.39389 8.0202 6.39389 8.5305C6.39389 9.0408 6.28332 9.48731 6.06219 9.87003C5.84106 10.2528 5.52638 10.5504 5.11814 10.7631C4.71841 10.9757 4.25488 11.082 3.72758 11.082H1.48226C1.44824 11.082 1.43123 11.099 1.43123 11.133V14.7561C1.43123 14.8412 1.3887 14.8837 1.30365 14.8837H0.334086C0.249037 14.8837 0.206512 14.8412 0.206512 14.7561V6.0683C0.206512 5.98325 0.249037 5.94073 0.334086 5.94073H3.7786ZM3.61276 10.0869C4.08053 10.0869 4.45475 9.94658 4.73542 9.66591C5.02458 9.38525 5.16917 9.01528 5.16917 8.55601C5.16917 8.08824 5.02458 7.71402 4.73542 7.43335C4.45475 7.14419 4.08053 6.9996 3.61276 6.9996H1.48226C1.44824 6.9996 1.43123 7.01661 1.43123 7.05063V10.0359C1.43123 10.0699 1.44824 10.0869 1.48226 10.0869H3.61276Z" fill="#F2F4F6"/>
<path d="M10.7923 8.32638C11.0645 8.32638 11.3111 8.38166 11.5323 8.49222C11.5918 8.51774 11.6131 8.56877 11.596 8.64532L11.3919 9.60213C11.3834 9.67867 11.3324 9.70419 11.2388 9.67867C11.0943 9.61914 10.9242 9.58937 10.7285 9.58937L10.5499 9.60213C10.1502 9.61913 9.8185 9.75947 9.55485 10.0231C9.2997 10.2783 9.17213 10.6142 9.17213 11.031V14.7561C9.17213 14.8412 9.1296 14.8837 9.04455 14.8837H8.07498C7.98993 14.8837 7.94741 14.8412 7.94741 14.7561V8.51774C7.94741 8.43269 7.98993 8.39017 8.07498 8.39017H9.04455C9.1296 8.39017 9.17213 8.43269 9.17213 8.51774V9.19389C9.17213 9.2194 9.17638 9.23641 9.18488 9.24492C9.20189 9.24492 9.21465 9.23641 9.22316 9.2194C9.60588 8.62405 10.1289 8.32638 10.7923 8.32638Z" fill="#F2F4F6"/>
<path d="M15.4907 14.9858C14.8613 14.9858 14.3127 14.8284 13.8449 14.5138C13.3772 14.1906 13.0497 13.7441 12.8626 13.1742C12.7095 12.7149 12.633 12.1961 12.633 11.6178C12.633 11.014 12.7053 10.5037 12.8499 10.0869C13.037 9.52558 13.3644 9.08757 13.8322 8.77289C14.3 8.4497 14.857 8.28811 15.5034 8.28811C16.1158 8.28811 16.6473 8.4497 17.0981 8.77289C17.5574 9.08757 17.8848 9.52133 18.0804 10.0742C18.2335 10.5079 18.3101 11.0182 18.3101 11.6051C18.3101 12.2004 18.2335 12.7235 18.0804 13.1742C17.8933 13.7441 17.5701 14.1906 17.1109 14.5138C16.6516 14.8284 16.1115 14.9858 15.4907 14.9858ZM15.4907 13.9269C15.8309 13.9269 16.1285 13.8334 16.3837 13.6462C16.6388 13.4506 16.8217 13.1785 16.9323 12.8298C17.0258 12.5066 17.0726 12.1068 17.0726 11.6306C17.0726 11.1543 17.0301 10.7588 16.945 10.4441C16.8344 10.0954 16.6516 9.82751 16.3964 9.6404C16.1413 9.44478 15.8309 9.34698 15.4651 9.34698C15.1164 9.34698 14.8145 9.44478 14.5594 9.6404C14.3042 9.82751 14.1214 10.0954 14.0108 10.4441C13.9172 10.7418 13.8705 11.1373 13.8705 11.6306C13.8705 12.1239 13.9172 12.5236 14.0108 12.8298C14.1129 13.1785 14.2915 13.4506 14.5466 13.6462C14.8103 13.8334 15.1249 13.9269 15.4907 13.9269Z" fill="#F2F4F6"/>
<path d="M21.5792 14.8837C21.5026 14.8837 21.4516 14.8497 21.4261 14.7817L19.3466 8.5305L19.3339 8.47947C19.3339 8.41993 19.3721 8.39017 19.4487 8.39017H20.5203C20.5968 8.39017 20.6479 8.42419 20.6734 8.49222L22.0767 13.1104C22.0852 13.1274 22.098 13.1359 22.115 13.1359C22.132 13.1359 22.1447 13.1274 22.1533 13.1104L23.5438 8.49222C23.5693 8.42419 23.6204 8.39017 23.6969 8.39017L24.7685 8.40292C24.8621 8.40292 24.8961 8.4497 24.8706 8.54326L22.8039 14.7817C22.7784 14.8497 22.7273 14.8837 22.6508 14.8837H21.5792Z" fill="#F2F4F6"/>
<path d="M31.361 10.8268C31.395 11.1755 31.4077 11.5668 31.3992 12.0005C31.3992 12.0856 31.3567 12.1281 31.2717 12.1281H27.202C27.168 12.1281 27.151 12.1451 27.151 12.1791C27.151 12.4683 27.1765 12.6894 27.2275 12.8425C27.3211 13.1827 27.5082 13.4506 27.7889 13.6462C28.078 13.8334 28.4395 13.9269 28.8733 13.9269C29.5026 13.9269 29.9874 13.6675 30.3276 13.1487C30.3701 13.0637 30.4254 13.0509 30.4935 13.1104L31.2206 13.5952C31.2802 13.6462 31.2929 13.7015 31.2589 13.7611C31.0208 14.1438 30.6806 14.4457 30.2383 14.6668C29.8045 14.888 29.3113 14.9985 28.7584 14.9985C28.1376 14.9985 27.6145 14.8625 27.1893 14.5903C26.764 14.3181 26.4451 13.9312 26.2325 13.4294C26.0283 12.9276 25.9263 12.3195 25.9263 11.6051C25.9263 10.9842 25.9731 10.5122 26.0666 10.189C26.2197 9.60213 26.5259 9.1386 26.9851 8.7984C27.4444 8.45821 28.0015 8.28811 28.6564 8.28811C29.5154 8.28811 30.1575 8.50498 30.5828 8.93874C31.008 9.36399 31.2674 9.99335 31.361 10.8268ZM28.6564 9.34698C28.2907 9.34698 27.9887 9.44053 27.7506 9.62764C27.5125 9.80624 27.3509 10.0486 27.2658 10.3548C27.2063 10.5419 27.168 10.7801 27.151 11.0692C27.151 11.1033 27.168 11.1203 27.202 11.1203H30.1235C30.1575 11.1203 30.1745 11.1033 30.1745 11.0692C30.1575 10.7886 30.132 10.5802 30.098 10.4441C30.0129 10.1124 29.8428 9.84877 29.5877 9.65316C29.341 9.44904 29.0306 9.34698 28.6564 9.34698Z" fill="#F2F4F6"/>
<path d="M33.7798 14.8837C33.5417 14.8837 33.346 14.8072 33.193 14.6541C33.0399 14.501 32.9633 14.3054 32.9633 14.0672C32.9633 13.8291 33.0399 13.6335 33.193 13.4804C33.346 13.3273 33.5417 13.2508 33.7798 13.2508C34.0179 13.2508 34.2136 13.3273 34.3666 13.4804C34.5197 13.6335 34.5963 13.8291 34.5963 14.0672C34.5963 14.3054 34.5197 14.501 34.3666 14.6541C34.2136 14.8072 34.0179 14.8837 33.7798 14.8837Z" fill="#F2F4F6"/>
<path d="M5.04159 25.111C4.99907 25.1365 4.99907 25.162 5.04159 25.1875C5.94312 25.5702 6.39389 26.2804 6.39389 27.318C6.39389 28.1005 6.13449 28.7043 5.61568 29.1296C5.09688 29.5548 4.42073 29.7674 3.58724 29.7674H0.410631C0.325581 29.7674 0.283056 29.7249 0.283056 29.6399V20.9648C0.283056 20.8797 0.325581 20.8372 0.410631 20.8372H3.48518C4.3697 20.8372 5.05435 21.0413 5.53914 21.4496C6.03243 21.8493 6.27907 22.4361 6.27907 23.2101C6.27907 24.1286 5.86658 24.7623 5.04159 25.111ZM1.5588 21.8961C1.52478 21.8961 1.50777 21.9131 1.50777 21.9471V24.6389C1.50777 24.673 1.52478 24.69 1.5588 24.69H3.48518C3.97847 24.69 4.36545 24.5666 4.64611 24.32C4.93528 24.0734 5.07987 23.7374 5.07987 23.3122C5.07987 22.8784 4.93528 22.534 4.64611 22.2788C4.36545 22.0237 3.97847 21.8961 3.48518 21.8961H1.5588ZM3.58724 28.6958C4.07203 28.6958 4.45475 28.564 4.73542 28.3003C5.02458 28.0282 5.16917 27.6625 5.16917 27.2032C5.16917 26.7439 5.02458 26.3825 4.73542 26.1188C4.44625 25.8466 4.05076 25.7106 3.54897 25.7106H1.5588C1.52478 25.7106 1.50777 25.7276 1.50777 25.7616V28.6448C1.50777 28.6788 1.52478 28.6958 1.5588 28.6958H3.58724Z" fill="#F2F4F6"/>
<path d="M9.08601 22.2533C8.84787 22.2533 8.65226 22.1767 8.49917 22.0237C8.34608 21.8706 8.26953 21.6749 8.26953 21.4368C8.26953 21.1987 8.34608 21.0031 8.49917 20.85C8.65226 20.6969 8.84787 20.6203 9.08601 20.6203C9.32415 20.6203 9.51977 20.6969 9.67286 20.85C9.82595 21.0031 9.90249 21.1987 9.90249 21.4368C9.90249 21.6749 9.82595 21.8706 9.67286 22.0237C9.51977 22.1767 9.32415 22.2533 9.08601 22.2533ZM8.57571 29.7547C8.49066 29.7547 8.44814 29.7122 8.44814 29.6271V23.4015C8.44814 23.3164 8.49066 23.2739 8.57571 23.2739H9.54528C9.63033 23.2739 9.67286 23.3164 9.67286 23.4015V29.6271C9.67286 29.7122 9.63033 29.7547 9.54528 29.7547H8.57571Z" fill="#F2F4F6"/>
<path d="M14.5064 29.8695C13.8771 29.8695 13.3285 29.7122 12.8607 29.3975C12.393 29.0743 12.0655 28.6278 11.8784 28.0579C11.7253 27.5987 11.6488 27.0799 11.6488 26.5015C11.6488 25.8977 11.7211 25.3874 11.8656 24.9706C12.0528 24.4093 12.3802 23.9713 12.848 23.6566C13.3157 23.3334 13.8728 23.1718 14.5192 23.1718C15.1316 23.1718 15.6631 23.3334 16.1139 23.6566C16.5732 23.9713 16.9006 24.405 17.0962 24.9579C17.2493 25.3916 17.3258 25.9019 17.3258 26.4888C17.3258 27.0841 17.2493 27.6072 17.0962 28.0579C16.9091 28.6278 16.5859 29.0743 16.1266 29.3975C15.6674 29.7122 15.1273 29.8695 14.5064 29.8695ZM14.5064 28.8106C14.8466 28.8106 15.1443 28.7171 15.3995 28.53C15.6546 28.3344 15.8375 28.0622 15.948 27.7135C16.0416 27.3903 16.0884 26.9906 16.0884 26.5143C16.0884 26.038 16.0458 25.6425 15.9608 25.3278C15.8502 24.9791 15.6674 24.7112 15.4122 24.5241C15.1571 24.3285 14.8466 24.2307 14.4809 24.2307C14.1322 24.2307 13.8303 24.3285 13.5751 24.5241C13.32 24.7112 13.1371 24.9791 13.0266 25.3278C12.933 25.6255 12.8862 26.021 12.8862 26.5143C12.8862 27.0076 12.933 27.4073 13.0266 27.7135C13.1286 28.0622 13.3072 28.3344 13.5624 28.53C13.826 28.7171 14.1407 28.8106 14.5064 28.8106Z" fill="#F2F4F6"/>
<path d="M2.39442 40.0975C2.90897 40.0975 3.3212 40.2554 3.6311 40.5712C3.94684 40.8869 4.10472 41.3021 4.10472 41.8166C4.10472 42.3253 3.94392 42.7346 3.62233 43.0445C3.30658 43.3544 2.8885 43.5094 2.36811 43.5094H0.657807C0.634419 43.5094 0.622724 43.5211 0.622724 43.5444V46.1581C0.622724 46.2166 0.593488 46.2458 0.535017 46.2458H0.0877076C0.0292359 46.2458 0 46.2166 0 46.1581V40.1852C0 40.1268 0.0292359 40.0975 0.0877076 40.0975H2.39442ZM2.32425 42.9919C2.66924 42.9919 2.9499 42.8866 3.16625 42.6761C3.38259 42.4598 3.49076 42.1762 3.49076 41.8254C3.49076 41.4687 3.38259 41.1822 3.16625 40.9658C2.9499 40.7495 2.66924 40.6413 2.32425 40.6413H0.657807C0.634419 40.6413 0.622724 40.653 0.622724 40.6764V42.9568C0.622724 42.9802 0.634419 42.9919 0.657807 42.9919H2.32425Z" fill="#F2F4F6"/>
<path d="M6.84311 46.316C6.42212 46.316 6.05959 46.2078 5.75554 45.9915C5.45149 45.7751 5.24099 45.4769 5.12404 45.0969C5.04218 44.8279 5.00125 44.4683 5.00125 44.0181C5.00125 43.5678 5.04218 43.2112 5.12404 42.948C5.23514 42.5738 5.44272 42.2785 5.74677 42.0622C6.05082 41.8458 6.41919 41.7377 6.85188 41.7377C7.26703 41.7377 7.62371 41.8458 7.92192 42.0622C8.22597 42.2785 8.43355 42.5709 8.54464 42.9393C8.6265 43.1907 8.66743 43.5503 8.66743 44.0181C8.66743 44.4917 8.6265 44.8513 8.54464 45.0969C8.43355 45.4769 8.22597 45.7751 7.92192 45.9915C7.62371 46.2078 7.26411 46.316 6.84311 46.316ZM6.84311 45.7722C7.12378 45.7722 7.36351 45.6962 7.56232 45.5442C7.76112 45.3863 7.89561 45.1758 7.96577 44.9127C8.0184 44.7022 8.04471 44.4069 8.04471 44.0268C8.04471 43.6409 8.02132 43.3456 7.97454 43.141C7.90438 42.8779 7.76697 42.6703 7.56232 42.5183C7.36351 42.3604 7.12085 42.2815 6.83434 42.2815C6.54783 42.2815 6.30517 42.3604 6.10637 42.5183C5.90757 42.6703 5.77308 42.8779 5.70291 43.141C5.65614 43.3456 5.63275 43.6409 5.63275 44.0268C5.63275 44.4128 5.65614 44.708 5.70291 44.9127C5.76723 45.1758 5.8988 45.3863 6.0976 45.5442C6.30225 45.6962 6.55076 45.7722 6.84311 45.7722Z" fill="#F2F4F6"/>
<path d="M10.8548 46.2458C10.808 46.2458 10.7758 46.2225 10.7583 46.1757L9.51285 41.9043L9.50408 41.878C9.50408 41.8312 9.53332 41.8078 9.59179 41.8078H10.0479C10.1005 41.8078 10.1327 41.8341 10.1443 41.8868L11.074 45.3425C11.0799 45.3541 11.0857 45.36 11.0916 45.36C11.1033 45.36 11.1121 45.3541 11.1179 45.3425L12.0651 41.8868C12.0768 41.8341 12.109 41.8078 12.1616 41.8078H12.5826C12.6352 41.8078 12.6674 41.8312 12.6791 41.878L13.6351 45.3337C13.641 45.3454 13.6497 45.3512 13.6614 45.3512C13.6731 45.3512 13.6819 45.3454 13.6877 45.3337L14.6437 41.8868C14.6554 41.8341 14.6876 41.8078 14.7402 41.8078L15.1963 41.8166C15.2255 41.8166 15.246 41.8254 15.2577 41.8429C15.2752 41.8605 15.2811 41.8839 15.2752 41.9131L14.0123 46.1757C13.9947 46.2225 13.9626 46.2458 13.9158 46.2458H13.4509C13.4041 46.2458 13.372 46.2225 13.3544 46.1757L12.3984 42.8954C12.3926 42.8837 12.3838 42.8779 12.3721 42.8779C12.3663 42.8779 12.3604 42.8837 12.3546 42.8954L11.4249 46.1757C11.4073 46.2225 11.3752 46.2458 11.3284 46.2458H10.8548Z" fill="#F2F4F6"/>
<path d="M19.6878 43.2813C19.7112 43.445 19.7229 43.6497 19.7229 43.8953V44.1759C19.7229 44.2344 19.6937 44.2636 19.6352 44.2636H16.8022C16.7789 44.2636 16.7672 44.2753 16.7672 44.2987C16.7789 44.6203 16.7964 44.8279 16.8198 44.9215C16.8841 45.1846 17.0215 45.3922 17.232 45.5442C17.4425 45.6962 17.7115 45.7722 18.0389 45.7722C18.2845 45.7722 18.5009 45.7167 18.688 45.6056C18.8751 45.4945 19.0213 45.3366 19.1265 45.132C19.1616 45.0793 19.2025 45.0676 19.2493 45.0969L19.5914 45.2986C19.6381 45.3278 19.6498 45.3688 19.6264 45.4214C19.4803 45.7021 19.261 45.9243 18.9686 46.088C18.6763 46.2458 18.3401 46.3248 17.96 46.3248C17.5448 46.3189 17.1969 46.2195 16.9163 46.0266C16.6356 45.8336 16.4339 45.5646 16.3111 45.2197C16.2058 44.939 16.1532 44.5355 16.1532 44.0093C16.1532 43.7637 16.1561 43.5649 16.162 43.4129C16.1737 43.255 16.1971 43.1147 16.2321 42.9919C16.3316 42.6118 16.5304 42.3078 16.8286 42.0797C17.1326 41.8517 17.4981 41.7377 17.9249 41.7377C18.457 41.7377 18.8663 41.8722 19.1528 42.1411C19.4393 42.4101 19.6177 42.7902 19.6878 43.2813ZM17.9249 42.2815C17.6384 42.2815 17.3987 42.3575 17.2057 42.5095C17.0186 42.6557 16.8958 42.8545 16.8373 43.1059C16.8022 43.2287 16.7789 43.4275 16.7672 43.7023C16.7672 43.7257 16.7789 43.7374 16.8022 43.7374H19.0739C19.0973 43.7374 19.109 43.7257 19.109 43.7023C19.0973 43.4392 19.0797 43.2521 19.0563 43.141C18.992 42.8779 18.8605 42.6703 18.6616 42.5183C18.4687 42.3604 18.2231 42.2815 17.9249 42.2815Z" fill="#F2F4F6"/>
<path d="M22.926 41.764C23.119 41.764 23.2856 41.802 23.426 41.878C23.4727 41.9014 23.4903 41.9394 23.4786 41.992L23.3821 42.4218C23.3646 42.4803 23.3266 42.4978 23.2681 42.4744C23.1687 42.4335 23.0547 42.413 22.926 42.413L22.812 42.4218C22.5079 42.4335 22.2565 42.5475 22.0577 42.7639C21.8589 42.9743 21.7595 43.2433 21.7595 43.5708V46.1581C21.7595 46.2166 21.7303 46.2458 21.6718 46.2458H21.2245C21.166 46.2458 21.1368 46.2166 21.1368 46.1581V41.8955C21.1368 41.8371 21.166 41.8078 21.2245 41.8078H21.6718C21.7303 41.8078 21.7595 41.8371 21.7595 41.8955V42.4306C21.7595 42.4481 21.7624 42.4598 21.7683 42.4656C21.78 42.4656 21.7887 42.4598 21.7946 42.4481C21.9174 42.2318 22.0723 42.0651 22.2594 41.9482C22.4524 41.8254 22.6746 41.764 22.926 41.764Z" fill="#F2F4F6"/>
<path d="M27.8673 43.2813C27.8906 43.445 27.9023 43.6497 27.9023 43.8953V44.1759C27.9023 44.2344 27.8731 44.2636 27.8146 44.2636H24.9817C24.9583 44.2636 24.9466 44.2753 24.9466 44.2987C24.9583 44.6203 24.9758 44.8279 24.9992 44.9215C25.0635 45.1846 25.2009 45.3922 25.4114 45.5442C25.6219 45.6962 25.8909 45.7722 26.2183 45.7722C26.4639 45.7722 26.6803 45.7167 26.8674 45.6056C27.0545 45.4945 27.2007 45.3366 27.3059 45.132C27.341 45.0793 27.3819 45.0676 27.4287 45.0969L27.7708 45.2986C27.8176 45.3278 27.8292 45.3688 27.8059 45.4214C27.6597 45.7021 27.4404 45.9243 27.148 46.088C26.8557 46.2458 26.5195 46.3248 26.1394 46.3248C25.7243 46.3189 25.3764 46.2195 25.0957 46.0266C24.815 45.8336 24.6133 45.5646 24.4905 45.2197C24.3853 44.939 24.3326 44.5355 24.3326 44.0093C24.3326 43.7637 24.3356 43.5649 24.3414 43.4129C24.3531 43.255 24.3765 43.1147 24.4116 42.9919C24.511 42.6118 24.7098 42.3078 25.008 42.0797C25.312 41.8517 25.6775 41.7377 26.1043 41.7377C26.6364 41.7377 27.0457 41.8722 27.3322 42.1411C27.6187 42.4101 27.7971 42.7902 27.8673 43.2813ZM26.1043 42.2815C25.8178 42.2815 25.5781 42.3575 25.3851 42.5095C25.198 42.6557 25.0752 42.8545 25.0168 43.1059C24.9817 43.2287 24.9583 43.4275 24.9466 43.7023C24.9466 43.7257 24.9583 43.7374 24.9817 43.7374H27.2533C27.2767 43.7374 27.2884 43.7257 27.2884 43.7023C27.2767 43.4392 27.2591 43.2521 27.2358 43.141C27.1714 42.8779 27.0399 42.6703 26.8411 42.5183C26.6481 42.3604 26.4025 42.2815 26.1043 42.2815Z" fill="#F2F4F6"/>
<path d="M32.0702 40.194C32.0702 40.1355 32.0995 40.1063 32.1579 40.1063H32.6052C32.6637 40.1063 32.693 40.1355 32.693 40.194V46.1581C32.693 46.2166 32.6637 46.2458 32.6052 46.2458H32.1579C32.0995 46.2458 32.0702 46.2166 32.0702 46.1581V45.7898C32.0702 45.7781 32.0644 45.7722 32.0527 45.7722C32.0468 45.7664 32.0381 45.7693 32.0264 45.781C31.8977 45.9506 31.7369 46.0821 31.544 46.1757C31.3569 46.2692 31.1464 46.316 30.9125 46.316C30.5032 46.316 30.1582 46.2108 29.8775 46.0003C29.6027 45.7898 29.4127 45.5033 29.3074 45.1407C29.2256 44.8776 29.1846 44.5063 29.1846 44.0268C29.1846 43.5415 29.2197 43.179 29.2899 42.9393C29.3951 42.565 29.5881 42.2727 29.8688 42.0622C30.1494 41.8458 30.4973 41.7377 30.9125 41.7377C31.1405 41.7377 31.351 41.7844 31.544 41.878C31.7369 41.9657 31.8977 42.0944 32.0264 42.2639C32.0381 42.2756 32.0468 42.2815 32.0527 42.2815C32.0644 42.2756 32.0702 42.2668 32.0702 42.2551V40.194ZM31.9124 45.0969C31.965 44.9799 32.003 44.8425 32.0264 44.6847C32.0498 44.5268 32.0615 44.3075 32.0615 44.0268C32.0615 43.7462 32.0498 43.5269 32.0264 43.369C32.003 43.2053 31.9621 43.0621 31.9036 42.9393C31.8334 42.7405 31.7165 42.5826 31.5528 42.4656C31.3949 42.3429 31.2048 42.2815 30.9827 42.2815C30.7488 42.2815 30.547 42.3399 30.3775 42.4569C30.2079 42.5738 30.0851 42.7288 30.0091 42.9217C29.9389 43.0504 29.8863 43.1965 29.8512 43.3603C29.822 43.5181 29.8074 43.7403 29.8074 44.0268C29.8074 44.3017 29.8191 44.518 29.8425 44.6759C29.8658 44.8279 29.9068 44.9653 29.9652 45.0881C30.0354 45.2986 30.1582 45.4652 30.3336 45.588C30.5149 45.7108 30.7283 45.7722 30.9739 45.7722C31.2078 45.7722 31.4037 45.7108 31.5615 45.588C31.7194 45.4652 31.8363 45.3015 31.9124 45.0969Z" fill="#F2F4F6"/>
<path d="M39.6227 42.9393C39.6928 43.2024 39.7279 43.5649 39.7279 44.0268C39.7279 44.5063 39.687 44.8776 39.6051 45.1407C39.494 45.5033 39.3011 45.7898 39.0263 46.0003C38.7514 46.2108 38.4094 46.316 38.0001 46.316C37.7662 46.316 37.5528 46.2692 37.3598 46.1757C37.1669 46.0821 37.0061 45.9476 36.8774 45.7722C36.8716 45.7605 36.8628 45.7576 36.8511 45.7635C36.8394 45.7635 36.8336 45.7693 36.8336 45.781V46.1581C36.8336 46.2166 36.8043 46.2458 36.7459 46.2458H36.2986C36.2401 46.2458 36.2108 46.2166 36.2108 46.1581V40.194C36.2108 40.1355 36.2401 40.1063 36.2986 40.1063H36.7459C36.8043 40.1063 36.8336 40.1355 36.8336 40.194V42.2639C36.8336 42.2756 36.8365 42.2844 36.8423 42.2902C36.854 42.2902 36.8657 42.2844 36.8774 42.2727C37.0061 42.1031 37.1669 41.9716 37.3598 41.878C37.5528 41.7844 37.7662 41.7377 38.0001 41.7377C38.4152 41.7377 38.7631 41.8458 39.0438 42.0622C39.3245 42.2727 39.5174 42.565 39.6227 42.9393ZM38.9473 45.0881C39.0058 44.9653 39.0467 44.8279 39.0701 44.6759C39.0935 44.518 39.1052 44.3017 39.1052 44.0268C39.1052 43.7403 39.0877 43.5181 39.0526 43.3603C39.0233 43.1965 38.9736 43.0504 38.9035 42.9217C38.8275 42.7288 38.7047 42.5738 38.5351 42.4569C38.3655 42.3399 38.1638 42.2815 37.9299 42.2815C37.7077 42.2815 37.5148 42.3429 37.3511 42.4656C37.1932 42.5826 37.0792 42.7405 37.009 42.9393C36.9505 43.0621 36.9067 43.2024 36.8774 43.3603C36.854 43.5181 36.8423 43.7403 36.8423 44.0268C36.8423 44.3075 36.854 44.5268 36.8774 44.6847C36.9067 44.8367 36.9476 44.9741 37.0002 45.0969C37.0762 45.3015 37.1932 45.4652 37.3511 45.588C37.5089 45.7108 37.7048 45.7722 37.9387 45.7722C38.1843 45.7722 38.3948 45.7108 38.5702 45.588C38.7514 45.4652 38.8772 45.2986 38.9473 45.0881Z" fill="#F2F4F6"/>
<path d="M40.8954 48C40.8545 48 40.834 47.9708 40.834 47.9123V47.5615C40.834 47.503 40.8632 47.4738 40.9217 47.4738H40.9568C41.1848 47.4679 41.3602 47.4328 41.483 47.3685C41.6117 47.31 41.7199 47.196 41.8076 47.0264C41.9011 46.8627 42.0005 46.6113 42.1058 46.2722C42.1175 46.2488 42.1175 46.2312 42.1058 46.2195L40.6235 41.9043L40.6147 41.8692C40.6147 41.8283 40.641 41.8078 40.6937 41.8078H41.1585C41.2111 41.8078 41.2462 41.8312 41.2638 41.878L42.404 45.4214C42.4098 45.4331 42.4186 45.4389 42.4303 45.4389C42.442 45.4389 42.4507 45.4331 42.4566 45.4214L43.5793 41.878C43.5968 41.8312 43.6319 41.8078 43.6845 41.8078H44.1406C44.2049 41.8078 44.2283 41.84 44.2107 41.9043L42.5882 46.6318C42.4478 47.0235 42.3163 47.313 42.1935 47.5001C42.0707 47.6872 41.9157 47.8158 41.7286 47.886C41.5474 47.962 41.2901 48 40.9568 48H40.8954Z" fill="#F2F4F6"/>
<path d="M48.878 46.2458C48.8253 46.2458 48.7902 46.2225 48.7727 46.1757L46.8607 40.2028L46.8519 40.1677C46.8519 40.1268 46.8782 40.1063 46.9308 40.1063H47.4045C47.4571 40.1063 47.4922 40.1297 47.5097 40.1765L49.106 45.3161C49.1118 45.3278 49.1206 45.3337 49.1323 45.3337C49.144 45.3337 49.1528 45.3278 49.1586 45.3161L50.7549 40.1765C50.7724 40.1297 50.8075 40.1063 50.8601 40.1063H51.325C51.3893 40.1063 51.4127 40.1385 51.3952 40.2028L49.4656 46.1757C49.4481 46.2225 49.413 46.2458 49.3603 46.2458H48.878Z" fill="#F2F4F6"/>
<path d="M55.5616 43.2813C55.585 43.445 55.5967 43.6497 55.5967 43.8953V44.1759C55.5967 44.2344 55.5675 44.2636 55.509 44.2636H52.676C52.6527 44.2636 52.641 44.2753 52.641 44.2987C52.6527 44.6203 52.6702 44.8279 52.6936 44.9215C52.7579 45.1846 52.8953 45.3922 53.1058 45.5442C53.3163 45.6962 53.5853 45.7722 53.9127 45.7722C54.1583 45.7722 54.3746 45.7167 54.5618 45.6056C54.7489 45.4945 54.895 45.3366 55.0003 45.132C55.0354 45.0793 55.0763 45.0676 55.1231 45.0969L55.4651 45.2986C55.5119 45.3278 55.5236 45.3688 55.5002 45.4214C55.354 45.7021 55.1348 45.9243 54.8424 46.088C54.5501 46.2458 54.2139 46.3248 53.8338 46.3248C53.4186 46.3189 53.0707 46.2195 52.7901 46.0266C52.5094 45.8336 52.3077 45.5646 52.1849 45.2197C52.0796 44.939 52.027 44.5355 52.027 44.0093C52.027 43.7637 52.0299 43.5649 52.0358 43.4129C52.0475 43.255 52.0709 43.1147 52.1059 42.9919C52.2053 42.6118 52.4041 42.3078 52.7024 42.0797C53.0064 41.8517 53.3719 41.7377 53.7987 41.7377C54.3308 41.7377 54.7401 41.8722 55.0266 42.1411C55.3131 42.4101 55.4915 42.7902 55.5616 43.2813ZM53.7987 42.2815C53.5122 42.2815 53.2725 42.3575 53.0795 42.5095C52.8924 42.6557 52.7696 42.8545 52.7111 43.1059C52.676 43.2287 52.6527 43.4275 52.641 43.7023C52.641 43.7257 52.6527 43.7374 52.676 43.7374H54.9477C54.9711 43.7374 54.9828 43.7257 54.9828 43.7023C54.9711 43.4392 54.9535 43.2521 54.9301 43.141C54.8658 42.8779 54.7342 42.6703 54.5354 42.5183C54.3425 42.3604 54.0969 42.2815 53.7987 42.2815Z" fill="#F2F4F6"/>
<path d="M57.0983 46.2458C57.0398 46.2458 57.0106 46.2166 57.0106 46.1581V40.194C57.0106 40.1355 57.0398 40.1063 57.0983 40.1063H57.5456C57.6041 40.1063 57.6333 40.1355 57.6333 40.194V46.1581C57.6333 46.2166 57.6041 46.2458 57.5456 46.2458H57.0983Z" fill="#F2F4F6"/>
<path d="M60.9001 46.316C60.4791 46.316 60.1166 46.2078 59.8126 45.9915C59.5085 45.7751 59.298 45.4769 59.1811 45.0969C59.0992 44.8279 59.0583 44.4683 59.0583 44.0181C59.0583 43.5678 59.0992 43.2112 59.1811 42.948C59.2922 42.5738 59.4997 42.2785 59.8038 42.0622C60.1078 41.8458 60.4762 41.7377 60.9089 41.7377C61.3241 41.7377 61.6807 41.8458 61.9789 42.0622C62.283 42.2785 62.4906 42.5709 62.6017 42.9393C62.6835 43.1907 62.7245 43.5503 62.7245 44.0181C62.7245 44.4917 62.6835 44.8513 62.6017 45.0969C62.4906 45.4769 62.283 45.7751 61.9789 45.9915C61.6807 46.2078 61.3211 46.316 60.9001 46.316ZM60.9001 45.7722C61.1808 45.7722 61.4205 45.6962 61.6193 45.5442C61.8181 45.3863 61.9526 45.1758 62.0228 44.9127C62.0754 44.7022 62.1017 44.4069 62.1017 44.0268C62.1017 43.6409 62.0784 43.3456 62.0316 43.141C61.9614 42.8779 61.824 42.6703 61.6193 42.5183C61.4205 42.3604 61.1779 42.2815 60.8914 42.2815C60.6049 42.2815 60.3622 42.3604 60.1634 42.5183C59.9646 42.6703 59.8301 42.8779 59.7599 43.141C59.7132 43.3456 59.6898 43.6409 59.6898 44.0268C59.6898 44.4128 59.7132 44.708 59.7599 44.9127C59.8243 45.1758 59.9558 45.3863 60.1546 45.5442C60.3593 45.6962 60.6078 45.7722 60.9001 45.7722Z" fill="#F2F4F6"/>
<path d="M65.8374 46.316C65.4164 46.316 65.0539 46.2078 64.7498 45.9915C64.4516 45.7693 64.247 45.4711 64.1359 45.0969C64.0599 44.8396 64.0218 44.4771 64.0218 44.0093C64.0218 43.5883 64.0599 43.2316 64.1359 42.9393C64.2411 42.5767 64.4458 42.2873 64.7498 42.071C65.0539 41.8488 65.4164 41.7377 65.8374 41.7377C66.2642 41.7377 66.6326 41.8458 66.9425 42.0622C67.2583 42.2785 67.4629 42.5475 67.5565 42.8691C67.5857 42.9743 67.6032 43.0621 67.6091 43.1322V43.1498C67.6091 43.1907 67.5828 43.217 67.5302 43.2287L67.0916 43.2901H67.0741C67.0331 43.2901 67.0068 43.2638 66.9951 43.2112L66.9688 43.0796C66.9162 42.8574 66.7876 42.6703 66.5829 42.5183C66.3783 42.3604 66.1298 42.2815 65.8374 42.2815C65.545 42.2815 65.2995 42.3604 65.1006 42.5183C64.9077 42.6703 64.782 42.875 64.7235 43.1322C64.6709 43.3544 64.6446 43.6497 64.6446 44.0181C64.6446 44.404 64.6709 44.7022 64.7235 44.9127C64.782 45.1758 64.9077 45.3863 65.1006 45.5442C65.2995 45.6962 65.545 45.7722 65.8374 45.7722C66.1239 45.7722 66.3695 45.6991 66.5741 45.553C66.7846 45.4009 66.9162 45.208 66.9688 44.9741V44.939L66.9776 44.9039C66.9834 44.8454 67.0185 44.8221 67.0828 44.8338L67.5126 44.9039C67.5711 44.9156 67.5974 44.9478 67.5915 45.0004L67.5565 45.1758C67.4688 45.5149 67.267 45.7898 66.9513 46.0003C66.6355 46.2108 66.2642 46.316 65.8374 46.316Z" fill="#F2F4F6"/>
<path d="M69.3153 41.0009C69.1749 41.0009 69.058 40.9542 68.9644 40.8606C68.8709 40.767 68.8241 40.6501 68.8241 40.5098C68.8241 40.3636 68.8709 40.2466 68.9644 40.1589C69.058 40.0654 69.1749 40.0186 69.3153 40.0186C69.4556 40.0186 69.5726 40.0654 69.6661 40.1589C69.7597 40.2466 69.8064 40.3636 69.8064 40.5098C69.8064 40.6501 69.7597 40.767 69.6661 40.8606C69.5726 40.9542 69.4556 41.0009 69.3153 41.0009ZM69.0697 46.2371C69.0112 46.2371 68.982 46.2078 68.982 46.1494V41.8868C68.982 41.8283 69.0112 41.7991 69.0697 41.7991H69.517C69.5755 41.7991 69.6047 41.8283 69.6047 41.8868V46.1494C69.6047 46.2078 69.5755 46.2371 69.517 46.2371H69.0697Z" fill="#F2F4F6"/>
<path d="M73.2962 42.2376C73.2962 42.2961 73.2669 42.3253 73.2085 42.3253H72.2174C72.194 42.3253 72.1823 42.337 72.1823 42.3604V44.9478C72.1823 45.2284 72.2437 45.4272 72.3665 45.5442C72.4951 45.6553 72.6939 45.7108 72.9629 45.7108H73.1822C73.2406 45.7108 73.2699 45.7401 73.2699 45.7985V46.1581C73.2699 46.2166 73.2406 46.2458 73.1822 46.2458C73.112 46.2517 73.0038 46.2546 72.8576 46.2546C72.4366 46.2546 72.118 46.1757 71.9016 46.0178C71.6853 45.8599 71.5771 45.5676 71.5771 45.1407V42.3604C71.5771 42.337 71.5654 42.3253 71.542 42.3253H71.007C70.9485 42.3253 70.9193 42.2961 70.9193 42.2376V41.8955C70.9193 41.8371 70.9485 41.8078 71.007 41.8078H71.542C71.5654 41.8078 71.5771 41.7961 71.5771 41.7728V40.7553C71.5771 40.6969 71.6063 40.6676 71.6648 40.6676H72.0946C72.1531 40.6676 72.1823 40.6969 72.1823 40.7553V41.7728C72.1823 41.7961 72.194 41.8078 72.2174 41.8078H73.2085C73.2669 41.8078 73.2962 41.8371 73.2962 41.8955V42.2376Z" fill="#F2F4F6"/>
<path d="M74.4737 48C74.4328 48 74.4123 47.9708 74.4123 47.9123V47.5615C74.4123 47.503 74.4416 47.4738 74.5 47.4738H74.5351C74.7632 47.4679 74.9386 47.4328 75.0614 47.3685C75.19 47.31 75.2982 47.196 75.3859 47.0264C75.4794 46.8627 75.5788 46.6113 75.6841 46.2722C75.6958 46.2488 75.6958 46.2312 75.6841 46.2195L74.2018 41.9043L74.1931 41.8692C74.1931 41.8283 74.2194 41.8078 74.272 41.8078H74.7368C74.7895 41.8078 74.8245 41.8312 74.8421 41.878L75.9823 45.4214C75.9881 45.4331 75.9969 45.4389 76.0086 45.4389C76.0203 45.4389 76.0291 45.4331 76.0349 45.4214L77.1576 41.878C77.1751 41.8312 77.2102 41.8078 77.2628 41.8078H77.7189C77.7832 41.8078 77.8066 41.84 77.7891 41.9043L76.1665 46.6318C76.0261 47.0235 75.8946 47.313 75.7718 47.5001C75.649 47.6872 75.494 47.8158 75.3069 47.886C75.1257 47.962 74.8684 48 74.5351 48H74.4737Z" fill="#F2F4F6"/>
</svg>
