<svg width="5" height="10" viewBox="0 0 5 10" fill="none" xmlns="http://www.w3.org/2000/svg">
<mask id="mask0_3222_1787" style="mask-type:alpha" maskUnits="userSpaceOnUse" x="-6" y="-4" width="17" height="18">
<rect x="-5.9758" y="13.1467" width="16.732" height="16.732" transform="rotate(-90 -5.9758 13.1467)" fill="#C4C4C4"/>
</mask>
<g mask="url(#mask0_3222_1787)">
<path d="M5 0.840254C5 0.629078 4.92088 0.417691 4.76202 0.254372C4.4384 -0.0782754 3.90639 -0.0856284 3.5737 0.237985L0.746428 2.98845C0.743949 2.99088 0.741554 2.99328 0.739075 2.99572C0.262479 3.47088 -1.79342e-07 4.10286 -2.08727e-07 4.77513C4.17787e-05 5.44744 0.262479 6.07941 0.739117 6.55458L0.743235 6.55866L3.5705 9.33874C3.90143 9.66412 4.43349 9.65967 4.75886 9.32874C5.08424 8.99778 5.07979 8.46576 4.74886 8.14038L1.92395 5.36261C1.7671 5.2053 1.68071 4.99681 1.68071 4.77525C1.68071 4.5542 1.76664 4.34618 1.92277 4.18899L4.74571 1.44282C4.91496 1.27794 5 1.0592 5 0.840254Z" fill="#6A6A6A"/>
</g>
</svg>
