<svg width="7" height="4" viewBox="0 0 7 4" fill="none" xmlns="http://www.w3.org/2000/svg">
<mask id="mask0_3222_1772" style="mask-type:alpha" maskUnits="userSpaceOnUse" x="-3" y="-5" width="13" height="14">
<rect x="9.60628" y="8.01933" width="12.226" height="12.226" transform="rotate(180 9.60628 8.01933)" fill="#C4C4C4"/>
</mask>
<g mask="url(#mask0_3222_1772)">
<path d="M0.613969 0C0.459663 0 0.305204 0.0578108 0.185868 0.173893C-0.0571955 0.410355 -0.0625683 0.799097 0.173894 1.04219L2.18364 3.10806C2.18542 3.10987 2.18717 3.11162 2.18895 3.11343C2.53616 3.46168 2.99794 3.65347 3.48916 3.65347C3.98041 3.65344 4.44219 3.46168 4.7894 3.1134L4.79237 3.11039L6.82377 1.04452C7.06152 0.80272 7.05826 0.413948 6.81646 0.176196C6.57462 -0.0615565 6.18588 -0.058302 5.94813 0.183502L3.91843 2.24765C3.80348 2.36226 3.65114 2.42538 3.48925 2.42538C3.32773 2.42538 3.17573 2.3626 3.06087 2.24851L1.05426 0.185805C0.933786 0.0621397 0.773954 0 0.613969 0Z" fill="#333333"/>
</g>
</svg>
