<svg width="16" height="16" viewBox="0 0 16 16" fill="none" xmlns="http://www.w3.org/2000/svg">
<mask id="mask0_3181_1491" style="mask-type:alpha" maskUnits="userSpaceOnUse" x="-1" y="-1" width="18" height="18">
<rect x="-0.258065" y="-0.258065" width="16.5161" height="16.5161" fill="#D9D9D9"/>
</mask>
<g mask="url(#mask0_3181_1491)">
<path d="M7.9996 11.5349C8.79776 11.5349 9.44476 10.8926 9.44476 10.1001C9.44476 9.3077 8.79776 8.66532 7.9996 8.66532C7.20143 8.66532 6.55444 9.3077 6.55444 10.1001C6.55444 10.8926 7.20143 11.5349 7.9996 11.5349Z" stroke="#333333" stroke-width="1.5" stroke-miterlimit="10" stroke-linecap="round" stroke-linejoin="round"/>
<path d="M8 11.5351V12.9699" stroke="#333333" stroke-width="1.5" stroke-miterlimit="10" stroke-linecap="round" stroke-linejoin="round"/>
<path d="M3.66431 6.51336V5.07857C3.66431 2.70399 4.3869 0.774194 7.9998 0.774194C11.6127 0.774194 12.3353 2.70399 12.3353 5.07857V6.51336" stroke="#333333" stroke-width="1.5" stroke-linecap="round" stroke-linejoin="round"/>
<path d="M11.6129 15.1219H4.3871C1.49677 15.1219 0.774194 14.4045 0.774194 11.5349V10.1001C0.774194 7.2305 1.49677 6.5131 4.3871 6.5131H11.6129C14.5032 6.5131 15.2258 7.2305 15.2258 10.1001V11.5349C15.2258 14.4045 14.5032 15.1219 11.6129 15.1219Z" stroke="#333333" stroke-width="1.5" stroke-linecap="round" stroke-linejoin="round"/>
</g>
</svg>
