<svg width="16" height="16" viewBox="0 0 16 16" fill="none" xmlns="http://www.w3.org/2000/svg">
<path d="M2 2H3.04401C3.69201 2 4.20201 2.558 4.14801 3.2L3.65 9.17602C3.566 10.154 4.34 10.994 5.324 10.994H11.714C12.578 10.994 13.334 10.286 13.4 9.42802L13.724 4.92801C13.796 3.93201 13.04 3.122 12.038 3.122H4.29201" stroke="#333333" stroke-miterlimit="10" stroke-linecap="round" stroke-linejoin="round"/>
<path d="M10.55 14C10.9642 14 11.3 13.6642 11.3 13.25C11.3 12.8358 10.9642 12.5 10.55 12.5C10.1357 12.5 9.79999 12.8358 9.79999 13.25C9.79999 13.6642 10.1357 14 10.55 14Z" stroke="#333333" stroke-miterlimit="10" stroke-linecap="round" stroke-linejoin="round"/>
<path d="M5.75 14C6.16422 14 6.5 13.6642 6.5 13.25C6.5 12.8358 6.16422 12.5 5.75 12.5C5.33578 12.5 5 12.8358 5 13.25C5 13.6642 5.33578 14 5.75 14Z" stroke="#333333" stroke-miterlimit="10" stroke-linecap="round" stroke-linejoin="round"/>
<path d="M6.20001 5.60001H13.4" stroke="#333333" stroke-miterlimit="10" stroke-linecap="round" stroke-linejoin="round"/>
</svg>
