<svg width="16" height="16" viewBox="0 0 16 16" fill="none" xmlns="http://www.w3.org/2000/svg">
<g clip-path="url(#clip0_3222_1227)">
<path d="M8.00001 15.1667C4.04668 15.1667 0.833344 11.9534 0.833344 8.00004C0.833344 4.04671 4.04668 0.833374 8.00001 0.833374C11.9533 0.833374 15.1667 4.04671 15.1667 8.00004C15.1667 11.9534 11.9533 15.1667 8.00001 15.1667ZM8.00001 1.83337C4.60001 1.83337 1.83334 4.60004 1.83334 8.00004C1.83334 11.4 4.60001 14.1667 8.00001 14.1667C11.4 14.1667 14.1667 11.4 14.1667 8.00004C14.1667 4.60004 11.4 1.83337 8.00001 1.83337Z" fill="white" stroke="white" stroke-width="0.5"/>
<path d="M10.6667 8.5H5.33334C5.06001 8.5 4.83334 8.27333 4.83334 8C4.83334 7.72667 5.06001 7.5 5.33334 7.5H10.6667C10.94 7.5 11.1667 7.72667 11.1667 8C11.1667 8.27333 10.94 8.5 10.6667 8.5Z" fill="white" stroke="white" stroke-width="0.5"/>
<path d="M8 11.1667C7.72667 11.1667 7.5 10.94 7.5 10.6667V5.33337C7.5 5.06004 7.72667 4.83337 8 4.83337C8.27333 4.83337 8.5 5.06004 8.5 5.33337V10.6667C8.5 10.94 8.27333 11.1667 8 11.1667Z" fill="white" stroke="white" stroke-width="0.5"/>
</g>
<defs>
<clipPath id="clip0_3222_1227">
<rect width="16" height="16" fill="white"/>
</clipPath>
</defs>
</svg>
