<svg width="14" height="16" viewBox="0 0 14 16" fill="none" xmlns="http://www.w3.org/2000/svg">
<mask id="mask0_3180_1145" style="mask-type:alpha" maskUnits="userSpaceOnUse" x="-2" y="-1" width="18" height="18">
<rect x="-1.28797" y="-0.257795" width="16.4989" height="16.4989" fill="#D9D9D9"/>
</mask>
<g mask="url(#mask0_3180_1145)">
<path d="M0.949665 5.45921C2.37202 -0.793368 11.6354 -0.786147 13.0505 5.46643C13.8808 9.13423 11.5993 12.2389 9.59931 14.1594C8.14807 15.5601 5.85209 15.5601 4.39364 14.1594C2.4009 12.2389 0.119356 9.12701 0.949665 5.45921Z" stroke="#333333" stroke-width="1.5"/>
<path d="M9.02384 5.6715C9.02384 5.22036 8.54263 4.76921 7.99266 4.76921C7.4427 4.76921 6.61775 4.76921 5.9303 4.76921C5.70115 4.76921 4.89912 5.0399 4.89912 6.12264C4.89912 7.20538 5.70115 7.47607 5.9303 7.47607H7.99266C8.22181 7.47607 9.02384 7.74675 9.02384 8.82949C9.02384 9.91223 8.22181 10.1829 7.99266 10.1829H5.9303C5.70115 10.1829 4.89912 10.3634 4.89912 9.28063" stroke="#333333" stroke-width="1.5" stroke-linecap="round" stroke-linejoin="round"/>
<path d="M6.96148 4.76921L6.96148 3.86693" stroke="#333333" stroke-width="1.5" stroke-linecap="round"/>
<path d="M6.96148 11.0852L6.96148 10.1829" stroke="#333333" stroke-width="1.5" stroke-linecap="round"/>
</g>
</svg>
