<svg width="16" height="16" viewBox="0 0 16 16" fill="none" xmlns="http://www.w3.org/2000/svg">
<g clip-path="url(#clip0_3181_1694)">
<path d="M7.33301 1.33333H5.99967C2.66634 1.33333 1.33301 2.66666 1.33301 5.99999V9.99999C1.33301 13.3333 2.66634 14.6667 5.99967 14.6667H9.99967C13.333 14.6667 14.6663 13.3333 14.6663 9.99999V8.66666" stroke="#333333" stroke-width="1.5" stroke-linecap="round" stroke-linejoin="round"/>
<path d="M10.6933 2.01333L5.43992 7.26666C5.23992 7.46666 5.03992 7.85999 4.99992 8.14666L4.71325 10.1533C4.60659 10.88 5.11992 11.3867 5.84659 11.2867L7.85325 11C8.13325 10.96 8.52659 10.76 8.73325 10.56L13.9866 5.30667C14.8933 4.4 15.3199 3.34667 13.9866 2.01333C12.6533 0.680001 11.5999 1.10667 10.6933 2.01333Z" stroke="#333333" stroke-width="1.5" stroke-miterlimit="10" stroke-linecap="round" stroke-linejoin="round"/>
<path d="M9.94043 2.7666C10.3871 4.35994 11.6338 5.6066 13.2338 6.05994" stroke="#333333" stroke-width="1.5" stroke-miterlimit="10" stroke-linecap="round" stroke-linejoin="round"/>
</g>
<defs>
<clipPath id="clip0_3181_1694">
<rect width="16" height="16" fill="white"/>
</clipPath>
</defs>
</svg>
