<svg width="28" height="28" viewBox="0 0 28 28" fill="none" xmlns="http://www.w3.org/2000/svg">
<path fill-rule="evenodd" clip-rule="evenodd" d="M27.5016 12.6441L25.2706 10.0197C24.988 9.68689 24.8166 9.27392 24.7807 8.83877C24.7194 7.96398 24.5882 6.56432 24.5007 5.41836C24.4622 4.92157 24.2469 4.45505 23.8937 4.10353C23.5405 3.752 23.0729 3.53877 22.5759 3.50258L19.155 3.22265C18.7198 3.18668 18.3068 3.01537 17.9739 2.73277C17.344 2.1904 16.2241 1.25438 15.3492 0.502063C14.9717 0.178102 14.4906 0 13.9931 0C13.4956 0 13.0146 0.178102 12.637 0.502063L10.0123 2.73277C9.67943 3.01537 9.26641 3.18668 8.8312 3.22265L5.42783 3.50258C4.92942 3.53904 4.46075 3.7535 4.10738 4.10683C3.75401 4.46015 3.53951 4.92876 3.50304 5.4271C3.40681 6.58182 3.29307 8.05146 3.22308 8.84752C3.1871 9.28266 3.01577 9.69563 2.73313 10.0285C2.19944 10.6671 1.25455 11.778 0.50213 12.6528C0.178126 13.0303 0 13.5113 0 14.0087C0 14.5062 0.178126 14.9872 0.50213 15.3647L2.73313 17.989C3.01577 18.3219 3.1871 18.7348 3.22308 19.17C3.29307 20.0448 3.41555 21.4444 3.50304 22.5904C3.5435 23.0856 3.75976 23.55 4.11275 23.8998C4.46574 24.2495 4.93219 24.4615 5.42783 24.4974L8.8487 24.7774C9.28391 24.8133 9.69693 24.9846 10.0298 25.2672L12.6545 27.4979C13.0321 27.8219 13.5131 28 14.0106 28C14.5081 28 14.9892 27.8219 15.3667 27.4979C16.2416 26.7456 17.3527 25.8096 17.9914 25.2672C18.3243 24.9846 18.7373 24.8133 19.1725 24.7774L22.5759 24.4974C23.0743 24.461 23.543 24.2465 23.8964 23.8932C24.2497 23.5399 24.4642 23.0712 24.5007 22.5729C24.5969 21.4182 24.7194 19.9485 24.7807 19.1525C24.8166 18.7173 24.988 18.3044 25.2706 17.9715C25.8131 17.3417 26.7492 16.222 27.5016 15.3472C27.8233 14.9703 28 14.4911 28 13.9956C28 13.5002 27.8233 13.021 27.5016 12.6441ZM12.9607 18.094L9.07617 14.2099L10.5548 12.7316L12.9607 15.1285L17.449 10.6408L18.9276 12.1192L12.9607 18.094Z" fill="#AFAFAF"/>
</svg>
