<svg width="21" height="24" viewBox="0 0 21 24" fill="none" xmlns="http://www.w3.org/2000/svg">
<path d="M7.86848 0.543042L7.86844 0.543051C7.3644 0.663396 6.82468 1.10767 6.57945 1.63335C6.57945 1.63335 6.57945 1.63336 6.57945 1.63336L6.45903 1.8915L6.44218 7.34509L6.42498 12.9088L6.42121 14.1302L5.56743 13.2568L5.27317 12.9557C5.27316 12.9557 5.27315 12.9557 5.27314 12.9557C4.6938 12.3631 4.06407 12.0797 3.19055 12.031C2.28858 11.9808 1.52654 12.2618 0.980248 12.8052L0.980236 12.8052C0.561521 13.2217 0.404301 13.8135 0.557486 14.3728C0.561657 14.3809 0.568566 14.394 0.579181 14.4132C0.606756 14.463 0.647607 14.5331 0.701889 14.6234C0.809978 14.8032 0.963622 15.0502 1.15325 15.3491C1.53207 15.9461 2.04903 16.7415 2.62006 17.6027C4.3259 20.1752 4.74003 20.7532 5.16176 21.1964L5.16177 21.1964C6.2298 22.3189 7.53809 23.0528 9.08846 23.3949L9.08853 23.3949C9.47796 23.4809 9.77064 23.5 11.4414 23.5C12.8467 23.5 13.4587 23.4734 13.712 23.4235C14.7354 23.2217 15.877 22.7346 16.7028 22.1493L16.9919 22.5573L16.7028 22.1493C17.2606 21.754 18.1599 20.8248 18.5474 20.242C19.1214 19.3785 19.523 18.3784 19.7081 17.3498C19.7237 17.2626 19.7447 16.924 19.7625 16.3972C19.7795 15.8922 19.7926 15.2598 19.8002 14.6242C19.8078 13.9887 19.8099 13.3527 19.8051 12.8408C19.8001 12.3104 19.7876 11.9556 19.7728 11.85L19.7728 11.8498C19.7434 11.6396 19.6555 11.3289 19.5926 11.1908L7.86848 0.543042ZM7.86848 0.543042C8.32585 0.4338 8.92935 0.53656 9.34861 0.804037L9.34865 0.804059C9.64978 0.996136 9.84869 1.22254 10.0483 1.64593L10.0484 1.646L10.1946 1.95609L10.2125 4.59077L10.2312 7.33567L10.2357 8.00375L10.8754 7.81102L11.0125 7.76972C11.665 7.57315 12.5252 7.84096 12.9514 8.37381C12.9514 8.37382 12.9514 8.37383 12.9514 8.37384L13.1491 8.62099L13.3942 8.92746L13.7501 8.76223L14.0404 8.62747C14.1727 8.56608 14.2587 8.53913 14.7133 8.53913H14.7134C14.9932 8.5391 15.0999 8.54502 15.1787 8.56095C15.245 8.57435 15.309 8.59812 15.4949 8.69009C15.8879 8.88451 16.245 9.25194 16.4171 9.6296L16.4171 9.62962C16.4749 9.75648 16.5459 9.90404 16.638 10.0119C16.6888 10.0715 16.7792 10.1595 16.9183 10.2056C17.0732 10.2569 17.2158 10.2329 17.3197 10.191L17.1325 9.72736L17.3195 10.191L17.3196 10.191C17.3197 10.191 17.3205 10.1907 17.3219 10.1902L17.329 10.1878C17.3352 10.1858 17.3436 10.1833 17.3544 10.1805C17.3762 10.1749 17.4042 10.1687 17.4383 10.1626C17.5067 10.1502 17.5899 10.1397 17.68 10.1326C17.8658 10.1177 18.047 10.1197 18.1617 10.1353L18.1617 10.1353M7.86848 0.543042L18.1617 10.1353M18.1617 10.1353C18.7507 10.2156 19.3513 10.6615 19.5925 11.1908L18.1617 10.1353ZM0.565421 14.4008L0.56541 14.4008L0.565421 14.4008Z" fill="white" stroke="black"/>
</svg>
