<svg width="148" height="91" viewBox="0 0 148 91" fill="none" xmlns="http://www.w3.org/2000/svg">
<path d="M137.302 0H94.5095C88.601 0 83.8111 4.78982 83.8111 10.6984V53.4905C83.8111 59.3991 88.601 64.1889 94.5095 64.1889H137.302C143.21 64.1889 148 59.3991 148 53.4905V10.6984C148 4.78982 143.21 0 137.302 0Z" fill="#F2F4F6"/>
<path d="M105.207 20.5944H111.087L116.898 34.1662L122.696 20.5944H128.546L118.757 43.5946H115.015L105.207 20.5944Z" fill="black"/>
<path d="M7.12948 11.209C8.10836 11.209 8.96689 11.4176 9.70506 11.8348C10.4593 12.236 11.037 12.8057 11.4382 13.5439C11.8554 14.282 12.064 15.1325 12.064 16.0954C12.064 17.0582 11.8554 17.9007 11.4382 18.6228C11.0209 19.3449 10.4272 19.9066 9.65692 20.3078C8.9027 20.7089 8.02813 20.9095 7.0332 20.9095H2.79673C2.73254 20.9095 2.70045 20.9416 2.70045 21.0058V27.8419C2.70045 28.0024 2.62021 28.0826 2.45974 28.0826H0.630355C0.469883 28.0826 0.389647 28.0024 0.389647 27.8419V11.4497C0.389647 11.2892 0.469883 11.209 0.630355 11.209H7.12948ZM6.81656 19.032C7.69916 19.032 8.40524 18.7672 8.93479 18.2377C9.4804 17.7081 9.7532 17.0101 9.7532 16.1435C9.7532 15.2609 9.4804 14.5548 8.93479 14.0253C8.40524 13.4797 7.69916 13.2069 6.81656 13.2069H2.79673C2.73254 13.2069 2.70045 13.239 2.70045 13.3031V18.9357C2.70045 18.9999 2.73254 19.032 2.79673 19.032H6.81656Z" fill="#F2F4F6"/>
<path d="M20.363 15.7102C20.8765 15.7102 21.3419 15.8145 21.7591 16.0232C21.8714 16.0713 21.9115 16.1676 21.8795 16.312L21.4943 18.1173C21.4783 18.2617 21.382 18.3099 21.2055 18.2617C20.9327 18.1494 20.6117 18.0932 20.2426 18.0932L19.9056 18.1173C19.1514 18.1494 18.5256 18.4142 18.0281 18.9117C17.5467 19.3931 17.306 20.0269 17.306 20.8132V27.8419C17.306 28.0024 17.2258 28.0826 17.0653 28.0826H15.2359C15.0754 28.0826 14.9952 28.0024 14.9952 27.8419V16.0713C14.9952 15.9108 15.0754 15.8306 15.2359 15.8306H17.0653C17.2258 15.8306 17.306 15.9108 17.306 16.0713V17.347C17.306 17.3952 17.314 17.4273 17.3301 17.4433C17.3622 17.4433 17.3862 17.4273 17.4023 17.3952C18.1244 16.2719 19.1113 15.7102 20.363 15.7102Z" fill="#F2F4F6"/>
<path d="M29.2278 28.2752C28.0403 28.2752 27.0053 27.9783 26.1227 27.3846C25.2401 26.7748 24.6223 25.9323 24.2692 24.8572C23.9804 23.9906 23.836 23.0117 23.836 21.9205C23.836 20.7812 23.9724 19.8183 24.2452 19.032C24.5982 17.9729 25.216 17.1465 26.0986 16.5527C26.9812 15.9429 28.0323 15.638 29.2519 15.638C30.4073 15.638 31.4103 15.9429 32.2608 16.5527C33.1273 17.1465 33.7451 17.9649 34.1142 19.0079C34.4031 19.8263 34.5475 20.7892 34.5475 21.8964C34.5475 23.0197 34.4031 24.0066 34.1142 24.8572C33.7612 25.9323 33.1514 26.7748 32.2848 27.3846C31.4183 27.9783 30.3993 28.2752 29.2278 28.2752ZM29.2278 26.2773C29.8697 26.2773 30.4314 26.1008 30.9128 25.7478C31.3942 25.3787 31.7392 24.8652 31.9478 24.2072C32.1244 23.5974 32.2126 22.8432 32.2126 21.9446C32.2126 21.0459 32.1324 20.2997 31.9719 19.706C31.7633 19.0481 31.4183 18.5426 30.9369 18.1895C30.4554 17.8204 29.8697 17.6359 29.1797 17.6359C28.5217 17.6359 27.9521 17.8204 27.4707 18.1895C26.9892 18.5426 26.6442 19.0481 26.4356 19.706C26.2591 20.2676 26.1708 21.0138 26.1708 21.9446C26.1708 22.8753 26.2591 23.6295 26.4356 24.2072C26.6282 24.8652 26.9652 25.3787 27.4466 25.7478C27.944 26.1008 28.5378 26.2773 29.2278 26.2773Z" fill="#F2F4F6"/>
<path d="M40.7156 28.0826C40.5712 28.0826 40.4749 28.0185 40.4268 27.8901L36.5032 16.0954L36.4792 15.9991C36.4792 15.8868 36.5514 15.8306 36.6958 15.8306H38.7178C38.8622 15.8306 38.9585 15.8948 39.0066 16.0232L41.6544 24.7368C41.6704 24.7689 41.6945 24.7849 41.7266 24.7849C41.7587 24.7849 41.7828 24.7689 41.7988 24.7368L44.4225 16.0232C44.4707 15.8948 44.567 15.8306 44.7114 15.8306L46.7333 15.8547C46.9099 15.8547 46.9741 15.9429 46.9259 16.1194L43.0264 27.8901C42.9783 28.0185 42.882 28.0826 42.7376 28.0826H40.7156Z" fill="#F2F4F6"/>
<path d="M59.1719 20.4281C59.2361 21.0861 59.2602 21.8242 59.2442 22.6426C59.2442 22.8031 59.1639 22.8833 59.0035 22.8833H51.3249C51.2607 22.8833 51.2286 22.9154 51.2286 22.9796C51.2286 23.5252 51.2767 23.9425 51.373 24.2313C51.5495 24.8732 51.9026 25.3787 52.4321 25.7478C52.9777 26.1008 53.6597 26.2773 54.4781 26.2773C55.6656 26.2773 56.5803 25.7879 57.2222 24.809C57.3024 24.6485 57.4067 24.6245 57.5351 24.7368L58.9072 25.6515C59.0195 25.7478 59.0436 25.8521 58.9794 25.9644C58.5301 26.6865 57.8882 27.2562 57.0537 27.6734C56.2353 28.0907 55.3046 28.2993 54.2615 28.2993C53.09 28.2993 52.1031 28.0425 51.3008 27.529C50.4984 27.0155 49.8967 26.2854 49.4955 25.3386C49.1103 24.3918 48.9178 23.2444 48.9178 21.8964C48.9178 20.725 49.006 19.8344 49.1825 19.2246C49.4714 18.1173 50.0491 17.2427 50.9157 16.6009C51.7822 15.959 52.8333 15.638 54.0689 15.638C55.6897 15.638 56.9013 16.0472 57.7036 16.8656C58.506 17.668 58.9954 18.8555 59.1719 20.4281ZM54.0689 17.6359C53.3789 17.6359 52.8092 17.8124 52.3599 18.1655C51.9106 18.5025 51.6057 18.9598 51.4452 19.5375C51.3329 19.8905 51.2607 20.3399 51.2286 20.8855C51.2286 20.9497 51.2607 20.9817 51.3249 20.9817H56.8371C56.9013 20.9817 56.9334 20.9497 56.9334 20.8855C56.9013 20.3559 56.8531 19.9627 56.7889 19.706C56.6285 19.0801 56.3075 18.5827 55.8261 18.2136C55.3607 17.8285 54.775 17.6359 54.0689 17.6359Z" fill="#F2F4F6"/>
<path d="M63.7358 28.0826C63.2865 28.0826 62.9174 27.9382 62.6286 27.6494C62.3397 27.3605 62.1953 26.9914 62.1953 26.5421C62.1953 26.0928 62.3397 25.7237 62.6286 25.4349C62.9174 25.146 63.2865 25.0016 63.7358 25.0016C64.1851 25.0016 64.5542 25.146 64.8431 25.4349C65.1319 25.7237 65.2764 26.0928 65.2764 26.5421C65.2764 26.9914 65.1319 27.3605 64.8431 27.6494C64.5542 27.9382 64.1851 28.0826 63.7358 28.0826Z" fill="#F2F4F6"/>
<path d="M9.51249 47.3794C9.43226 47.4276 9.43226 47.4757 9.51249 47.5239C11.2135 48.246 12.064 49.5859 12.064 51.5437C12.064 53.02 11.5746 54.1594 10.5957 54.9617C9.6168 55.7641 8.34105 56.1653 6.76842 56.1653H0.77478C0.614308 56.1653 0.534072 56.085 0.534072 55.9246V39.5564C0.534072 39.3959 0.614308 39.3157 0.77478 39.3157H6.57585C8.24476 39.3157 9.53657 39.7008 10.4513 40.4711C11.382 41.2253 11.8474 42.3326 11.8474 43.7929C11.8474 45.526 11.0691 46.7215 9.51249 47.3794ZM2.94116 41.3136C2.87697 41.3136 2.84487 41.3457 2.84487 41.4099V46.4888C2.84487 46.553 2.87697 46.5851 2.94116 46.5851H6.57585C7.50659 46.5851 8.23674 46.3524 8.7663 45.887C9.3119 45.4217 9.58471 44.7878 9.58471 43.9854C9.58471 43.167 9.3119 42.5171 8.7663 42.0357C8.23674 41.5543 7.50659 41.3136 6.57585 41.3136H2.94116ZM6.76842 54.1433C7.68311 54.1433 8.40524 53.8946 8.93479 53.3971C9.4804 52.8836 9.7532 52.1936 9.7532 51.327C9.7532 50.4605 9.4804 49.7785 8.93479 49.281C8.38919 48.7675 7.64299 48.5108 6.69621 48.5108H2.94116C2.87697 48.5108 2.84487 48.5429 2.84487 48.607V54.0471C2.84487 54.1112 2.87697 54.1433 2.94116 54.1433H6.76842Z" fill="#F2F4F6"/>
<path d="M17.1435 41.9876C16.6942 41.9876 16.3251 41.8431 16.0363 41.5543C15.7474 41.2654 15.603 40.8964 15.603 40.447C15.603 39.9977 15.7474 39.6286 16.0363 39.3398C16.3251 39.0509 16.6942 38.9065 17.1435 38.9065C17.5928 38.9065 17.9619 39.0509 18.2508 39.3398C18.5396 39.6286 18.684 39.9977 18.684 40.447C18.684 40.8964 18.5396 41.2654 18.2508 41.5543C17.9619 41.8431 17.5928 41.9876 17.1435 41.9876ZM16.1807 56.1412C16.0202 56.1412 15.94 56.061 15.94 55.9005V44.1539C15.94 43.9935 16.0202 43.9132 16.1807 43.9132H18.0101C18.1705 43.9132 18.2508 43.9935 18.2508 44.1539V55.9005C18.2508 56.061 18.1705 56.1412 18.0101 56.1412H16.1807Z" fill="#F2F4F6"/>
<path d="M27.3708 56.3579C26.1833 56.3579 25.1483 56.061 24.2657 55.4672C23.3831 54.8574 22.7652 54.015 22.4122 52.9398C22.1234 52.0732 21.9789 51.0944 21.9789 50.0032C21.9789 48.8638 22.1153 47.901 22.3881 47.1147C22.7412 46.0555 23.359 45.2291 24.2416 44.6354C25.1242 44.0256 26.1753 43.7207 27.3949 43.7207C28.5503 43.7207 29.5532 44.0256 30.4037 44.6354C31.2703 45.2291 31.8881 46.0475 32.2572 47.0906C32.546 47.909 32.6905 48.8718 32.6905 49.9791C32.6905 51.1024 32.546 52.0893 32.2572 52.9398C31.9041 54.015 31.2943 54.8574 30.4278 55.4672C29.5612 56.061 28.5422 56.3579 27.3708 56.3579ZM27.3708 54.36C28.0127 54.36 28.5743 54.1835 29.0558 53.8304C29.5372 53.4613 29.8822 52.9478 30.0908 52.2899C30.2673 51.6801 30.3556 50.9259 30.3556 50.0272C30.3556 49.1286 30.2753 48.3824 30.1149 47.7886C29.9063 47.1307 29.5612 46.6252 29.0798 46.2722C28.5984 45.9031 28.0127 45.7185 27.3227 45.7185C26.6647 45.7185 26.095 45.9031 25.6136 46.2722C25.1322 46.6252 24.7872 47.1307 24.5786 47.7886C24.4021 48.3503 24.3138 49.0965 24.3138 50.0272C24.3138 50.958 24.4021 51.7122 24.5786 52.2899C24.7711 52.9478 25.1081 53.4613 25.5896 53.8304C26.087 54.1835 26.6808 54.36 27.3708 54.36Z" fill="#F2F4F6"/>
<path d="M4.5178 75.6561C5.48865 75.6561 6.26644 75.954 6.85116 76.5498C7.44692 77.1455 7.74479 77.9288 7.74479 78.8997C7.74479 79.8595 7.4414 80.6318 6.83461 81.2165C6.23886 81.8012 5.45004 82.0936 4.46815 82.0936H1.24115C1.19702 82.0936 1.17496 82.1157 1.17496 82.1598V87.0913C1.17496 87.2016 1.1198 87.2568 1.00947 87.2568H0.165487C0.0551623 87.2568 0 87.2016 0 87.0913V75.8216C0 75.7113 0.0551623 75.6561 0.165487 75.6561H4.5178ZM4.38541 81.1172C5.03632 81.1172 5.56588 80.9186 5.97408 80.5215C6.38228 80.1133 6.58638 79.5782 6.58638 78.9162C6.58638 78.2433 6.38228 77.7027 5.97408 77.2945C5.56588 76.8863 5.03632 76.6822 4.38541 76.6822H1.24115C1.19702 76.6822 1.17496 76.7042 1.17496 76.7484V81.051C1.17496 81.0952 1.19702 81.1172 1.24115 81.1172H4.38541Z" fill="#F2F4F6"/>
<path d="M12.9116 87.3892C12.1173 87.3892 11.4333 87.1851 10.8596 86.7769C10.2859 86.3687 9.88871 85.806 9.66806 85.0889C9.51361 84.5814 9.43638 83.9029 9.43638 83.0534C9.43638 82.2039 9.51361 81.5309 9.66806 81.0345C9.87768 80.3284 10.2693 79.7713 10.843 79.3631C11.4167 78.9549 12.1118 78.7508 12.9282 78.7508C13.7115 78.7508 14.3844 78.9549 14.9471 79.3631C15.5208 79.7713 15.9124 80.3229 16.1221 81.0179C16.2765 81.4923 16.3537 82.1708 16.3537 83.0534C16.3537 83.947 16.2765 84.6255 16.1221 85.0889C15.9124 85.806 15.5208 86.3687 14.9471 86.7769C14.3844 87.1851 13.7059 87.3892 12.9116 87.3892ZM12.9116 86.3632C13.4412 86.3632 13.8935 86.2197 14.2686 85.9329C14.6437 85.635 14.8975 85.2378 15.0298 84.7414C15.1291 84.3442 15.1788 83.7871 15.1788 83.07C15.1788 82.3418 15.1346 81.7847 15.0464 81.3985C14.914 80.9021 14.6547 80.5104 14.2686 80.2236C13.8935 79.9257 13.4356 79.7768 12.8951 79.7768C12.3545 79.7768 11.8966 79.9257 11.5215 80.2236C11.1464 80.5104 10.8927 80.9021 10.7603 81.3985C10.672 81.7847 10.6279 82.3418 10.6279 83.07C10.6279 83.7981 10.672 84.3552 10.7603 84.7414C10.8816 85.2378 11.1299 85.635 11.505 85.9329C11.8911 86.2197 12.36 86.3632 12.9116 86.3632Z" fill="#F2F4F6"/>
<path d="M20.4808 87.2568C20.3926 87.2568 20.3319 87.2127 20.2988 87.1244L17.9489 79.0652L17.9323 79.0155C17.9323 78.9273 17.9875 78.8831 18.0978 78.8831H18.9583C19.0576 78.8831 19.1183 78.9328 19.1404 79.0321L20.8945 85.5523C20.9056 85.5743 20.9166 85.5854 20.9276 85.5854C20.9497 85.5854 20.9663 85.5743 20.9773 85.5523L22.7645 79.0321C22.7866 78.9328 22.8473 78.8831 22.9466 78.8831H23.7409C23.8402 78.8831 23.9009 78.9273 23.923 79.0155L25.7268 85.5357C25.7378 85.5578 25.7543 85.5688 25.7764 85.5688C25.7985 85.5688 25.815 85.5578 25.8261 85.5357L27.6299 79.0321C27.6519 78.9328 27.7126 78.8831 27.8119 78.8831L28.6724 78.8997C28.7276 78.8997 28.7662 78.9162 28.7883 78.9493C28.8214 78.9824 28.8324 79.0266 28.8214 79.0817L26.4384 87.1244C26.4053 87.2127 26.3446 87.2568 26.2563 87.2568H25.3792C25.291 87.2568 25.2303 87.2127 25.1972 87.1244L23.3934 80.9352C23.3824 80.9131 23.3658 80.9021 23.3438 80.9021C23.3327 80.9021 23.3217 80.9131 23.3107 80.9352L21.5565 87.1244C21.5234 87.2127 21.4627 87.2568 21.3745 87.2568H20.4808Z" fill="#F2F4F6"/>
<path d="M37.1471 81.6633C37.1912 81.9722 37.2132 82.3584 37.2132 82.8217V83.3513C37.2132 83.4616 37.1581 83.5168 37.0478 83.5168H31.7025C31.6584 83.5168 31.6363 83.5388 31.6363 83.583C31.6584 84.1898 31.6915 84.5814 31.7356 84.7579C31.857 85.2544 32.1162 85.646 32.5134 85.9329C32.9106 86.2197 33.4181 86.3632 34.0359 86.3632C34.4993 86.3632 34.9075 86.2583 35.2605 86.0487C35.6135 85.8391 35.8893 85.5412 36.0879 85.1551C36.1541 85.0558 36.2314 85.0337 36.3196 85.0889L36.965 85.4695C37.0533 85.5247 37.0753 85.6019 37.0312 85.7012C36.7554 86.2308 36.3417 86.65 35.7901 86.9589C35.2384 87.2568 34.6041 87.4057 33.887 87.4057C33.1036 87.3947 32.4472 87.2071 31.9177 86.8431C31.3881 86.479 31.0075 85.9715 30.7758 85.3206C30.5772 84.791 30.4779 84.0298 30.4779 83.0369C30.4779 82.5735 30.4834 82.1984 30.4945 81.9116C30.5165 81.6137 30.5607 81.3489 30.6269 81.1172C30.8144 80.4001 31.1895 79.8264 31.7522 79.3962C32.3259 78.9659 33.0154 78.7508 33.8208 78.7508C34.8247 78.7508 35.597 79.0045 36.1376 79.512C36.6782 80.0195 37.0147 80.7366 37.1471 81.6633ZM33.8208 79.7768C33.2802 79.7768 32.8278 79.9202 32.4638 80.207C32.1107 80.4829 31.879 80.858 31.7687 81.3324C31.7025 81.564 31.6584 81.9391 31.6363 82.4577C31.6363 82.5018 31.6584 82.5239 31.7025 82.5239H35.9886C36.0328 82.5239 36.0548 82.5018 36.0548 82.4577C36.0328 81.9612 35.9997 81.6082 35.9555 81.3985C35.8342 80.9021 35.586 80.5104 35.2109 80.2236C34.8468 79.9257 34.3834 79.7768 33.8208 79.7768Z" fill="#F2F4F6"/>
<path d="M43.2569 78.8004C43.621 78.8004 43.9354 78.8721 44.2002 79.0155C44.2884 79.0597 44.3215 79.1314 44.2995 79.2307L44.1174 80.0416C44.0843 80.1519 44.0126 80.185 43.9023 80.1408C43.7147 80.0636 43.4996 80.025 43.2569 80.025L43.0417 80.0416C42.4681 80.0636 41.9937 80.2788 41.6186 80.687C41.2435 81.0841 41.0559 81.5916 41.0559 82.2094V87.0913C41.0559 87.2016 41.0007 87.2568 40.8904 87.2568H40.0464C39.9361 87.2568 39.8809 87.2016 39.8809 87.0913V79.0486C39.8809 78.9383 39.9361 78.8831 40.0464 78.8831H40.8904C41.0007 78.8831 41.0559 78.9383 41.0559 79.0486V80.0581C41.0559 80.0912 41.0614 80.1133 41.0725 80.1243C41.0945 80.1243 41.1111 80.1133 41.1221 80.0912C41.3538 79.683 41.6461 79.3686 41.9992 79.1479C42.3632 78.9162 42.7825 78.8004 43.2569 78.8004Z" fill="#F2F4F6"/>
<path d="M52.58 81.6633C52.6241 81.9722 52.6462 82.3584 52.6462 82.8217V83.3513C52.6462 83.4616 52.591 83.5168 52.4807 83.5168H47.1355C47.0914 83.5168 47.0693 83.5388 47.0693 83.583C47.0914 84.1898 47.1245 84.5814 47.1686 84.7579C47.2899 85.2544 47.5492 85.646 47.9464 85.9329C48.3435 86.2197 48.851 86.3632 49.4689 86.3632C49.9322 86.3632 50.3404 86.2583 50.6935 86.0487C51.0465 85.8391 51.3223 85.5412 51.5209 85.1551C51.5871 85.0558 51.6643 85.0337 51.7526 85.0889L52.398 85.4695C52.4862 85.5247 52.5083 85.6019 52.4642 85.7012C52.1884 86.2308 51.7746 86.65 51.223 86.9589C50.6714 87.2568 50.037 87.4057 49.3199 87.4057C48.5366 87.3947 47.8802 87.2071 47.3506 86.8431C46.8211 86.479 46.4404 85.9715 46.2088 85.3206C46.0102 84.791 45.9109 84.0298 45.9109 83.0369C45.9109 82.5735 45.9164 82.1984 45.9274 81.9116C45.9495 81.6137 45.9936 81.3489 46.0598 81.1172C46.2474 80.4001 46.6225 79.8264 47.1851 79.3962C47.7588 78.9659 48.4483 78.7508 49.2537 78.7508C50.2577 78.7508 51.0299 79.0045 51.5705 79.512C52.1111 80.0195 52.4476 80.7366 52.58 81.6633ZM49.2537 79.7768C48.7131 79.7768 48.2608 79.9202 47.8967 80.207C47.5437 80.4829 47.312 80.858 47.2017 81.3324C47.1355 81.564 47.0914 81.9391 47.0693 82.4577C47.0693 82.5018 47.0914 82.5239 47.1355 82.5239H51.4216C51.4657 82.5239 51.4878 82.5018 51.4878 82.4577C51.4657 81.9612 51.4326 81.6082 51.3885 81.3985C51.2671 80.9021 51.0189 80.5104 50.6438 80.2236C50.2797 79.9257 49.8164 79.7768 49.2537 79.7768Z" fill="#F2F4F6"/>
<path d="M60.5102 75.8382C60.5102 75.7279 60.5654 75.6727 60.6757 75.6727H61.5197C61.63 75.6727 61.6852 75.7279 61.6852 75.8382V87.0913C61.6852 87.2016 61.63 87.2568 61.5197 87.2568H60.6757C60.5654 87.2568 60.5102 87.2016 60.5102 87.0913V86.3963C60.5102 86.3742 60.4992 86.3632 60.4771 86.3632C60.4661 86.3521 60.4495 86.3576 60.4275 86.3797C60.1847 86.6997 59.8813 86.9479 59.5173 87.1244C59.1642 87.3009 58.7671 87.3892 58.3258 87.3892C57.5535 87.3892 56.9026 87.1906 56.373 86.7934C55.8545 86.3963 55.4959 85.8557 55.2974 85.1716C55.1429 84.6752 55.0657 83.9746 55.0657 83.07C55.0657 82.1543 55.1319 81.4703 55.2643 81.0179C55.4628 80.3118 55.8269 79.7602 56.3565 79.3631C56.886 78.9549 57.5425 78.7508 58.3258 78.7508C58.756 78.7508 59.1532 78.839 59.5173 79.0155C59.8813 79.181 60.1847 79.4237 60.4275 79.7437C60.4495 79.7657 60.4661 79.7768 60.4771 79.7768C60.4992 79.7657 60.5102 79.7492 60.5102 79.7271V75.8382ZM60.2123 85.0889C60.3116 84.8683 60.3833 84.609 60.4275 84.3111C60.4716 84.0132 60.4936 83.5995 60.4936 83.07C60.4936 82.5404 60.4716 82.1267 60.4275 81.8288C60.3833 81.5199 60.3061 81.2496 60.1958 81.0179C60.0634 80.6428 59.8427 80.3449 59.5338 80.1243C59.2359 79.8926 58.8774 79.7768 58.4582 79.7768C58.0169 79.7768 57.6362 79.8871 57.3163 80.1077C56.9964 80.3284 56.7647 80.6208 56.6213 80.9848C56.4889 81.2275 56.3896 81.5034 56.3234 81.8123C56.2682 82.1101 56.2406 82.5294 56.2406 83.07C56.2406 83.5885 56.2627 83.9967 56.3068 84.2946C56.351 84.5814 56.4282 84.8407 56.5385 85.0724C56.6709 85.4695 56.9026 85.7839 57.2336 86.0156C57.5756 86.2473 57.9782 86.3632 58.4416 86.3632C58.8829 86.3632 59.2525 86.2473 59.5504 86.0156C59.8482 85.7839 60.0689 85.475 60.2123 85.0889Z" fill="#F2F4F6"/>
<path d="M74.7602 81.0179C74.8926 81.5144 74.9588 82.1984 74.9588 83.07C74.9588 83.9746 74.8815 84.6752 74.7271 85.1716C74.5175 85.8557 74.1534 86.3963 73.6349 86.7934C73.1163 87.1906 72.4709 87.3892 71.6987 87.3892C71.2574 87.3892 70.8547 87.3009 70.4906 87.1244C70.1265 86.9479 69.8231 86.6941 69.5804 86.3632C69.5694 86.3411 69.5529 86.3356 69.5308 86.3466C69.5087 86.3466 69.4977 86.3576 69.4977 86.3797V87.0913C69.4977 87.2016 69.4425 87.2568 69.3322 87.2568H68.4882C68.3779 87.2568 68.3227 87.2016 68.3227 87.0913V75.8382C68.3227 75.7279 68.3779 75.6727 68.4882 75.6727H69.3322C69.4425 75.6727 69.4977 75.7279 69.4977 75.8382V79.7437C69.4977 79.7657 69.5032 79.7823 69.5142 79.7933C69.5363 79.7933 69.5584 79.7823 69.5804 79.7602C69.8231 79.4403 70.1265 79.1921 70.4906 79.0155C70.8547 78.839 71.2574 78.7508 71.6987 78.7508C72.482 78.7508 73.1384 78.9549 73.668 79.3631C74.1975 79.7602 74.5616 80.3118 74.7602 81.0179ZM73.4859 85.0724C73.5963 84.8407 73.6735 84.5814 73.7176 84.2946C73.7617 83.9967 73.7838 83.5885 73.7838 83.07C73.7838 82.5294 73.7507 82.1101 73.6845 81.8123C73.6293 81.5034 73.5356 81.2275 73.4032 80.9848C73.2598 80.6208 73.0281 80.3284 72.7081 80.1077C72.3882 79.8871 72.0076 79.7768 71.5663 79.7768C71.147 79.7768 70.783 79.8926 70.4741 80.1243C70.1762 80.3449 69.9611 80.6428 69.8287 81.0179C69.7183 81.2496 69.6356 81.5144 69.5804 81.8123C69.5363 82.1101 69.5142 82.5294 69.5142 83.07C69.5142 83.5995 69.5363 84.0132 69.5804 84.3111C69.6356 84.598 69.7128 84.8572 69.8121 85.0889C69.9555 85.475 70.1762 85.7839 70.4741 86.0156C70.7719 86.2473 71.1415 86.3632 71.5828 86.3632C72.0462 86.3632 72.4434 86.2473 72.7743 86.0156C73.1163 85.7839 73.3535 85.4695 73.4859 85.0724Z" fill="#F2F4F6"/>
<path d="M77.1615 90.5665C77.0843 90.5665 77.0457 90.5114 77.0457 90.401V89.7391C77.0457 89.6288 77.1009 89.5736 77.2112 89.5736H77.2774C77.7077 89.5626 78.0386 89.4964 78.2703 89.375C78.513 89.2647 78.7171 89.0496 78.8826 88.7296C79.0591 88.4207 79.2467 87.9463 79.4453 87.3064C79.4673 87.2623 79.4673 87.2292 79.4453 87.2071L76.6485 79.0652L76.632 78.999C76.632 78.9218 76.6816 78.8831 76.7809 78.8831H77.658C77.7573 78.8831 77.8235 78.9273 77.8566 79.0155L80.0079 85.7012C80.019 85.7233 80.0355 85.7343 80.0576 85.7343C80.0796 85.7343 80.0962 85.7233 80.1072 85.7012L82.2255 79.0155C82.2585 78.9273 82.3247 78.8831 82.424 78.8831H83.2846C83.4059 78.8831 83.4501 78.9438 83.417 79.0652L80.3554 87.9849C80.0907 88.7241 79.8424 89.2702 79.6108 89.6232C79.3791 89.9763 79.0867 90.219 78.7337 90.3514C78.3917 90.4948 77.9062 90.5665 77.2774 90.5665H77.1615Z" fill="#F2F4F6"/>
<path d="M92.2231 87.2568C92.1238 87.2568 92.0576 87.2127 92.0245 87.1244L88.4169 75.8547L88.4003 75.7885C88.4003 75.7113 88.45 75.6727 88.5492 75.6727H89.4429C89.5422 75.6727 89.6084 75.7168 89.6415 75.8051L92.6533 85.5026C92.6644 85.5247 92.6809 85.5357 92.703 85.5357C92.725 85.5357 92.7416 85.5247 92.7526 85.5026L95.7645 75.8051C95.7976 75.7168 95.8638 75.6727 95.9631 75.6727H96.8401C96.9615 75.6727 97.0056 75.7334 96.9725 75.8547L93.3318 87.1244C93.2987 87.2127 93.2325 87.2568 93.1332 87.2568H92.2231Z" fill="#F2F4F6"/>
<path d="M104.834 81.6633C104.878 81.9722 104.9 82.3584 104.9 82.8217V83.3513C104.9 83.4616 104.845 83.5168 104.735 83.5168H99.3893C99.3452 83.5168 99.3231 83.5388 99.3231 83.583C99.3452 84.1898 99.3783 84.5814 99.4224 84.7579C99.5438 85.2544 99.803 85.646 100.2 85.9329C100.597 86.2197 101.105 86.3632 101.723 86.3632C102.186 86.3632 102.594 86.2583 102.947 86.0487C103.3 85.8391 103.576 85.5412 103.775 85.1551C103.841 85.0558 103.918 85.0337 104.006 85.0889L104.652 85.4695C104.74 85.5247 104.762 85.6019 104.718 85.7012C104.442 86.2308 104.028 86.65 103.477 86.9589C102.925 87.2568 102.291 87.4057 101.574 87.4057C100.79 87.3947 100.134 87.2071 99.6044 86.8431C99.0749 86.479 98.6943 85.9715 98.4626 85.3206C98.264 84.791 98.1647 84.0298 98.1647 83.0369C98.1647 82.5735 98.1702 82.1984 98.1812 81.9116C98.2033 81.6137 98.2474 81.3489 98.3136 81.1172C98.5012 80.4001 98.8763 79.8264 99.4389 79.3962C100.013 78.9659 100.702 78.7508 101.508 78.7508C102.511 78.7508 103.284 79.0045 103.824 79.512C104.365 80.0195 104.701 80.7366 104.834 81.6633ZM101.508 79.7768C100.967 79.7768 100.515 79.9202 100.151 80.207C99.7975 80.4829 99.5658 80.858 99.4555 81.3324C99.3893 81.564 99.3452 81.9391 99.3231 82.4577C99.3231 82.5018 99.3452 82.5239 99.3893 82.5239H103.675C103.72 82.5239 103.742 82.5018 103.742 82.4577C103.72 81.9612 103.686 81.6082 103.642 81.3985C103.521 80.9021 103.273 80.5104 102.898 80.2236C102.534 79.9257 102.07 79.7768 101.508 79.7768Z" fill="#F2F4F6"/>
<path d="M107.733 87.2568C107.623 87.2568 107.568 87.2016 107.568 87.0913V75.8382C107.568 75.7279 107.623 75.6727 107.733 75.6727H108.577C108.688 75.6727 108.743 75.7279 108.743 75.8382V87.0913C108.743 87.2016 108.688 87.2568 108.577 87.2568H107.733Z" fill="#F2F4F6"/>
<path d="M114.907 87.3892C114.112 87.3892 113.428 87.1851 112.855 86.7769C112.281 86.3687 111.884 85.806 111.663 85.0889C111.509 84.5814 111.431 83.9029 111.431 83.0534C111.431 82.2039 111.509 81.5309 111.663 81.0345C111.873 80.3284 112.264 79.7713 112.838 79.3631C113.412 78.9549 114.107 78.7508 114.923 78.7508C115.706 78.7508 116.379 78.9549 116.942 79.3631C117.516 79.7713 117.907 80.3229 118.117 81.0179C118.271 81.4923 118.349 82.1708 118.349 83.0534C118.349 83.947 118.271 84.6255 118.117 85.0889C117.907 85.806 117.516 86.3687 116.942 86.7769C116.379 87.1851 115.701 87.3892 114.907 87.3892ZM114.907 86.3632C115.436 86.3632 115.888 86.2197 116.264 85.9329C116.639 85.635 116.892 85.2378 117.025 84.7414C117.124 84.3442 117.174 83.7871 117.174 83.07C117.174 82.3418 117.13 81.7847 117.041 81.3985C116.909 80.9021 116.65 80.5104 116.264 80.2236C115.888 79.9257 115.431 79.7768 114.89 79.7768C114.349 79.7768 113.892 79.9257 113.516 80.2236C113.141 80.5104 112.888 80.9021 112.755 81.3985C112.667 81.7847 112.623 82.3418 112.623 83.07C112.623 83.7981 112.667 84.3552 112.755 84.7414C112.877 85.2378 113.125 85.635 113.5 85.9329C113.886 86.2197 114.355 86.3632 114.907 86.3632Z" fill="#F2F4F6"/>
<path d="M124.222 87.3892C123.428 87.3892 122.744 87.1851 122.17 86.7769C121.607 86.3576 121.221 85.795 121.012 85.0889C120.868 84.6035 120.797 83.9195 120.797 83.0369C120.797 82.2425 120.868 81.5696 121.012 81.0179C121.21 80.3339 121.596 79.7878 122.17 79.3796C122.744 78.9604 123.428 78.7508 124.222 78.7508C125.028 78.7508 125.723 78.9549 126.307 79.3631C126.903 79.7713 127.289 80.2787 127.466 80.8855C127.521 81.0841 127.554 81.2496 127.565 81.382V81.4151C127.565 81.4923 127.515 81.542 127.416 81.564L126.589 81.6799H126.556C126.478 81.6799 126.429 81.6302 126.407 81.5309L126.357 81.2827C126.258 80.8635 126.015 80.5104 125.629 80.2236C125.243 79.9257 124.774 79.7768 124.222 79.7768C123.671 79.7768 123.207 79.9257 122.832 80.2236C122.468 80.5104 122.231 80.8966 122.12 81.382C122.021 81.8012 121.972 82.3584 121.972 83.0534C121.972 83.7816 122.021 84.3442 122.12 84.7414C122.231 85.2378 122.468 85.635 122.832 85.9329C123.207 86.2197 123.671 86.3632 124.222 86.3632C124.763 86.3632 125.226 86.2253 125.612 85.9494C126.009 85.6626 126.258 85.2985 126.357 84.8572V84.791L126.374 84.7248C126.385 84.6145 126.451 84.5704 126.572 84.5924L127.383 84.7248C127.493 84.7469 127.543 84.8076 127.532 84.9069L127.466 85.2378C127.3 85.8777 126.92 86.3963 126.324 86.7934C125.728 87.1906 125.028 87.3892 124.222 87.3892Z" fill="#F2F4F6"/>
<path d="M130.784 77.3607C130.519 77.3607 130.299 77.2724 130.122 77.0959C129.946 76.9194 129.858 76.6987 129.858 76.4339C129.858 76.1581 129.946 75.9375 130.122 75.772C130.299 75.5955 130.519 75.5072 130.784 75.5072C131.049 75.5072 131.27 75.5955 131.446 75.772C131.623 75.9375 131.711 76.1581 131.711 76.4339C131.711 76.6987 131.623 76.9194 131.446 77.0959C131.27 77.2724 131.049 77.3607 130.784 77.3607ZM130.321 87.2402C130.211 87.2402 130.155 87.1851 130.155 87.0747V79.0321C130.155 78.9218 130.211 78.8666 130.321 78.8666H131.165C131.275 78.8666 131.33 78.9218 131.33 79.0321V87.0747C131.33 87.1851 131.275 87.2402 131.165 87.2402H130.321Z" fill="#F2F4F6"/>
<path d="M138.295 79.694C138.295 79.8044 138.24 79.8595 138.13 79.8595H136.26C136.216 79.8595 136.194 79.8816 136.194 79.9257V84.8076C136.194 85.3371 136.31 85.7122 136.541 85.9329C136.784 86.1425 137.159 86.2473 137.667 86.2473H138.08C138.191 86.2473 138.246 86.3025 138.246 86.4128V87.0913C138.246 87.2016 138.191 87.2568 138.08 87.2568C137.948 87.2678 137.744 87.2733 137.468 87.2733C136.674 87.2733 136.072 87.1244 135.664 86.8265C135.256 86.5286 135.052 85.977 135.052 85.1716V79.9257C135.052 79.8816 135.03 79.8595 134.986 79.8595H133.976C133.866 79.8595 133.811 79.8044 133.811 79.694V79.0486C133.811 78.9383 133.866 78.8831 133.976 78.8831H134.986C135.03 78.8831 135.052 78.8611 135.052 78.8169V76.8973C135.052 76.787 135.107 76.7318 135.217 76.7318H136.028C136.139 76.7318 136.194 76.787 136.194 76.8973V78.8169C136.194 78.8611 136.216 78.8831 136.26 78.8831H138.13C138.24 78.8831 138.295 78.9383 138.295 79.0486V79.694Z" fill="#F2F4F6"/>
<path d="M140.517 90.5665C140.44 90.5665 140.401 90.5114 140.401 90.401V89.7391C140.401 89.6288 140.457 89.5736 140.567 89.5736H140.633C141.063 89.5626 141.394 89.4964 141.626 89.375C141.869 89.2647 142.073 89.0496 142.238 88.7296C142.415 88.4207 142.602 87.9463 142.801 87.3064C142.823 87.2623 142.823 87.2292 142.801 87.2071L140.004 79.0652L139.988 78.999C139.988 78.9218 140.037 78.8831 140.137 78.8831H141.014C141.113 78.8831 141.179 78.9273 141.212 79.0155L143.364 85.7012C143.375 85.7233 143.391 85.7343 143.413 85.7343C143.435 85.7343 143.452 85.7233 143.463 85.7012L145.581 79.0155C145.614 78.9273 145.68 78.8831 145.78 78.8831H146.64C146.762 78.8831 146.806 78.9438 146.773 79.0652L143.711 87.9849C143.446 88.7241 143.198 89.2702 142.966 89.6232C142.735 89.9763 142.442 90.219 142.089 90.3514C141.747 90.4948 141.262 90.5665 140.633 90.5665H140.517Z" fill="#F2F4F6"/>
</svg>
