<svg width="16" height="16" viewBox="0 0 16 16" fill="none" xmlns="http://www.w3.org/2000/svg">
<mask id="mask0_3181_1365" style="mask-type:alpha" maskUnits="userSpaceOnUse" x="-1" y="-1" width="18" height="18">
<rect x="-0.258065" y="-0.257907" width="16.5161" height="16.5161" fill="#D9D9D9"/>
</mask>
<g mask="url(#mask0_3181_1365)">
<path d="M7.19698 0.952778H5.76969C2.20148 0.952778 0.774194 2.38006 0.774194 5.94828V10.2301C0.774194 13.7983 2.20148 15.2256 5.76969 15.2256H10.0515C13.6198 15.2256 15.047 13.7983 15.047 10.2301V8.80285" stroke="#333333" stroke-width="1.5" stroke-linecap="round" stroke-linejoin="round"/>
<path d="M10.7934 1.68155L5.16991 7.30505C4.95582 7.51915 4.74172 7.94019 4.69891 8.24706L4.39204 10.3951C4.27786 11.173 4.82736 11.7154 5.60523 11.6083L7.7533 11.3015C8.05303 11.2586 8.47408 11.0445 8.69531 10.8304L14.3188 5.20695C15.2894 4.2364 15.7461 3.10884 14.3188 1.68155C12.8915 0.254269 11.764 0.711 10.7934 1.68155Z" stroke="#333333" stroke-width="1.5" stroke-miterlimit="10" stroke-linecap="round" stroke-linejoin="round"/>
<path d="M9.9879 2.48806C10.466 4.19367 11.8006 5.52818 13.5133 6.01346" stroke="#333333" stroke-width="1.5" stroke-miterlimit="10" stroke-linecap="round" stroke-linejoin="round"/>
</g>
</svg>
