<svg width="5" height="10" viewBox="0 0 5 10" fill="none" xmlns="http://www.w3.org/2000/svg">
<mask id="mask0_3222_1792" style="mask-type:alpha" maskUnits="userSpaceOnUse" x="-6" y="-4" width="17" height="18">
<rect width="16" height="16" transform="matrix(-4.57113e-08 -1.04575 -1.04575 4.57113e-08 10.9758 13.1467)" fill="#C4C4C4"/>
</mask>
<g mask="url(#mask0_3222_1792)">
<path d="M5.35382e-07 0.840254C5.26151e-07 0.629078 0.0791178 0.417691 0.237984 0.254372C0.561597 -0.0782754 1.09361 -0.0856284 1.4263 0.237985L4.25357 2.98845C4.25605 2.99088 4.25845 2.99328 4.26092 2.99572C4.73752 3.47088 5 4.10286 5 4.77513C4.99996 5.44744 4.73752 6.07941 4.26088 6.55458L4.25677 6.55866L1.4295 9.33874C1.09857 9.66412 0.566513 9.65967 0.241135 9.32874C-0.0842431 8.99778 -0.0797891 8.46576 0.251135 8.14038L3.07605 5.36261C3.2329 5.2053 3.31929 4.99681 3.31929 4.77525C3.31929 4.5542 3.23336 4.34618 3.07723 4.18899L0.254286 1.44282C0.0850424 1.27794 5.44952e-07 1.0592 5.35382e-07 0.840254Z" fill="#6A6A6A"/>
</g>
</svg>
