<svg width="14" height="14" viewBox="0 0 14 14" fill="none" xmlns="http://www.w3.org/2000/svg">
<path d="M7 0C3.13111 0 0 3.13075 0 7C0 10.8688 3.13075 14 7 14C10.8689 14 14 10.8693 14 7C14 3.13116 10.8693 0 7 0ZM7.71884 9.7787C7.71884 9.99986 7.39635 10.221 7.00014 10.221C6.5855 10.221 6.29068 9.99986 6.29068 9.7787V6.26812C6.29068 6.01013 6.58552 5.83502 7.00014 5.83502C7.39635 5.83502 7.71884 6.01013 7.71884 6.26812V9.7787ZM7.00016 4.98739C6.57631 4.98739 6.24463 4.67411 6.24463 4.32395C6.24463 3.97381 6.57634 3.66975 7.00016 3.66975C7.4148 3.66975 7.74654 3.97381 7.74654 4.32395C7.74654 4.67411 7.41478 4.98739 7.00016 4.98739Z" fill="#333333" fill-opacity="0.5"/>
</svg>
