<svg width="40" height="36" viewBox="0 0 40 36" fill="none" xmlns="http://www.w3.org/2000/svg">
<path d="M19.9758 35.9954C16.0691 35.9954 12.1624 36.0079 8.2557 35.9916C4.32521 35.9741 1.01329 33.2937 0.18186 29.4578C0.0541416 28.8682 0.0203336 28.251 0.0128208 27.645C-0.00971786 26.0363 0.00405574 24.4276 0.00530789 22.8188C0.00530789 21.5168 0.431037 21.0524 1.72826 20.9322C3.23835 20.7932 4.36653 19.6677 4.45919 18.208C4.5531 16.7232 3.55639 15.495 2.07385 15.2797C1.8109 15.2409 1.54419 15.2321 1.28124 15.1983C0.617607 15.1132 0.0303508 14.5899 0.031603 13.9401C0.0341072 11.584 -0.0860988 9.21034 0.156818 6.87549C0.514931 3.44019 3.61149 0.533203 7.03736 0.100034C7.4393 0.0487053 7.84624 0.00739156 8.25069 0.00739156C16.0791 0.00238383 23.9088 -0.00637969 31.7372 0.00739156C35.6877 0.0136512 39.0159 2.72533 39.8273 6.58003C39.9513 7.17094 39.9801 7.78814 39.9876 8.39408C40.0089 9.98654 39.9963 11.5802 39.9963 13.174C39.9963 14.501 39.5719 14.9605 38.2383 15.0731C36.9611 15.182 35.9168 16.0759 35.6076 17.3216C35.3096 18.5247 35.8204 19.8417 36.9186 20.4715C37.3493 20.7181 37.8727 20.8596 38.3698 20.9247C39.5243 21.0749 39.9938 21.5556 39.9951 22.7274C39.9963 24.3524 40.0001 25.9762 39.9951 27.6012C39.9788 32.3861 36.3839 35.9854 31.602 35.9942C27.7266 36.0017 23.8512 35.9954 19.9758 35.9954ZM25.0733 22.5972C24.9218 21.7034 24.7602 20.6705 24.5624 19.6452C24.5098 19.3735 24.5749 19.217 24.7652 19.038C25.4602 18.3857 26.1413 17.7197 26.8225 17.0537C27.2608 16.6255 27.4323 16.116 27.2282 15.5188C27.0279 14.9304 26.6046 14.6074 25.9923 14.5185C25.0658 14.3858 24.1404 14.2368 23.2113 14.1179C22.902 14.0778 22.7217 13.9564 22.5865 13.6647C22.2121 12.8585 21.7939 12.0735 21.4045 11.2748C21.1127 10.6751 20.6682 10.3083 19.9808 10.3158C19.3146 10.3221 18.8827 10.6876 18.5997 11.2685C18.1952 12.0948 17.7933 12.9236 17.36 13.7348C17.2749 13.8926 17.062 14.0503 16.8867 14.0803C15.9501 14.2469 15.006 14.3796 14.0631 14.5098C13.4133 14.5999 12.9613 14.9216 12.7609 15.5564C12.5631 16.1811 12.7835 16.6831 13.2367 17.1163C13.8916 17.7422 14.5352 18.3807 15.1976 18.9979C15.4105 19.1957 15.4981 19.3735 15.433 19.684C15.2514 20.5541 15.125 21.4354 14.9684 22.3105C14.8558 22.9403 14.9534 23.5024 15.4893 23.9068C16.0328 24.3174 16.6138 24.3061 17.2048 23.9956C18.0062 23.575 18.815 23.1706 19.6089 22.7362C19.8844 22.586 20.1022 22.5735 20.3852 22.7299C21.2179 23.1894 22.0606 23.6338 22.9158 24.0507C23.9538 24.5565 25.0795 23.8604 25.072 22.5985L25.0733 22.5972Z" fill="#AFAFAF"/>
</svg>
