<svg width="10" height="5" viewBox="0 0 10 5" fill="none" xmlns="http://www.w3.org/2000/svg">
<mask id="mask0_3184_1980" style="mask-type:alpha" maskUnits="userSpaceOnUse" x="-4" y="-6" width="18" height="17">
<rect x="13.1464" y="10.9753" width="16.732" height="16.732" transform="rotate(-180 13.1464 10.9753)" fill="#C4C4C4"/>
</mask>
<g mask="url(#mask0_3184_1980)">
<path d="M0.840254 4.98653e-07C0.629077 4.98653e-07 0.417691 0.0791178 0.254371 0.237984C-0.0782756 0.561597 -0.0856285 1.09361 0.237985 1.4263L2.98845 4.25357C2.99088 4.25605 2.99328 4.25845 2.99572 4.26092C3.47088 4.73752 4.10286 5 4.77513 5C5.44744 4.99996 6.07941 4.73752 6.55458 4.26088L6.55866 4.25676L9.33874 1.4295C9.66412 1.09857 9.65967 0.566513 9.32874 0.241135C8.99777 -0.0842435 8.46576 -0.0797895 8.14038 0.251135L5.36261 3.07605C5.2053 3.2329 4.99681 3.31929 4.77525 3.31929C4.5542 3.31929 4.34618 3.23336 4.18899 3.07723L1.44282 0.254286C1.27794 0.0850423 1.0592 4.98653e-07 0.840254 4.98653e-07Z" fill="#333333"/>
</g>
</svg>
