<svg width="16" height="16" viewBox="0 0 16 16" fill="none" xmlns="http://www.w3.org/2000/svg">
<path d="M7.99273 13.4653C6.82073 13.4653 5.64872 13.4691 4.47671 13.4642C3.29756 13.4589 2.30399 12.6548 2.05456 11.504C2.01624 11.3271 2.0061 11.142 2.00385 10.9602C1.99708 10.4776 2.00122 9.99496 2.00159 9.51234C2.00159 9.12173 2.12931 8.98239 2.51848 8.94634C2.9715 8.90465 3.30996 8.567 3.33776 8.12908C3.36593 7.68364 3.06692 7.3152 2.62216 7.2506C2.54327 7.23895 2.46326 7.23632 2.38437 7.22618C2.18528 7.20064 2.00911 7.04365 2.00948 6.84873C2.01023 6.14189 1.97417 5.42979 2.04705 4.72933C2.15448 3.69874 3.08345 2.82665 4.11121 2.6967C4.23179 2.6813 4.35387 2.6689 4.47521 2.6689C6.82373 2.6674 9.17263 2.66477 11.5212 2.6689C12.7063 2.67078 13.7048 3.48429 13.9482 4.6407C13.9854 4.81797 13.994 5.00313 13.9963 5.18491C14.0027 5.66265 13.9989 6.14076 13.9989 6.61887C13.9989 7.01699 13.8716 7.15482 13.4715 7.18863C13.0883 7.2213 12.7751 7.48947 12.6823 7.86317C12.5929 8.2241 12.7461 8.61921 13.0756 8.80812C13.2048 8.88211 13.3618 8.92455 13.5109 8.94408C13.8573 8.98915 13.9981 9.13338 13.9985 9.48492C13.9989 9.97242 14 10.4595 13.9985 10.947C13.9936 12.3825 12.9152 13.4623 11.4806 13.4649C10.318 13.4672 9.15535 13.4653 7.99273 13.4653V13.4653ZM9.52198 9.44586C9.47653 9.17769 9.42807 8.86784 9.36872 8.56024C9.35294 8.47874 9.37247 8.43179 9.42957 8.37809C9.63805 8.18241 9.8424 7.9826 10.0468 7.78279C10.1782 7.65434 10.2297 7.50148 10.1685 7.32233C10.1084 7.14581 9.98139 7.04891 9.7977 7.02224C9.51973 6.98243 9.24212 6.93774 8.9634 6.90206C8.87061 6.89004 8.81652 6.85361 8.77595 6.7661C8.66363 6.52423 8.53817 6.28874 8.42134 6.04912C8.33382 5.86922 8.20047 5.75917 7.99424 5.76142C7.79439 5.7633 7.6648 5.87297 7.5799 6.04724C7.45857 6.29512 7.33799 6.54376 7.20801 6.78713C7.18247 6.83445 7.11861 6.88178 7.06602 6.89079C6.78504 6.94074 6.5018 6.98056 6.21894 7.01962C6.02399 7.04666 5.88838 7.14318 5.82827 7.3336C5.76892 7.52101 5.83504 7.67162 5.97102 7.80157C6.16748 7.98936 6.36056 8.18091 6.55928 8.36607C6.62314 8.42541 6.64943 8.47874 6.6299 8.57188C6.57543 8.83291 6.53749 9.09732 6.49053 9.35985C6.45673 9.54877 6.48603 9.7174 6.6468 9.83871C6.80983 9.9619 6.98413 9.95852 7.16143 9.86538C7.40185 9.73919 7.64451 9.61787 7.88267 9.48755C7.96531 9.44248 8.03067 9.43872 8.11557 9.48567C8.36537 9.62351 8.61818 9.75684 8.87475 9.88191C9.18615 10.0336 9.52386 9.82482 9.5216 9.44623L9.52198 9.44586Z" stroke="#333333" stroke-linecap="round" stroke-linejoin="round"/>
</svg>
